<svg width="342" height="195" viewBox="0 0 342 195" fill="none" xmlns="http://www.w3.org/2000/svg">
<path d="M28.9652 79.453L30.6915 80.7921L96.8968 22.8645L28.9652 79.453ZM27.2375 78.1129L28.9652 79.453L95.1926 21.497L27.2375 78.1129ZM16.5172 71.807L16.3461 72.0497L16.2011 72.3023L16.5172 71.807ZM16.9338 71.3646L16.7134 71.5774L16.5172 71.807L16.9338 71.3646ZM16.5172 71.807L16.2011 72.3023L15.9933 72.823L16.5172 71.807ZM16.2011 72.3023L16.0832 72.5612L15.9933 72.823L16.2011 72.3023ZM15.9933 72.823L15.9326 73.0843L15.902 73.3416L15.9933 72.823ZM15.9933 72.823L15.902 73.3416L15.9349 73.8304L15.9933 72.823ZM15.902 73.3416L15.9024 73.5915L15.9349 73.8304L15.902 73.3416ZM15.9349 73.8304L16.0005 74.0551L16.1001 74.2619L15.9349 73.8304ZM25.5083 76.7716L27.2375 78.1129L93.487 20.1285L25.5083 76.7716ZM95.1926 21.497L28.9652 79.453L96.8968 22.8645L95.1926 21.497ZM23.7777 75.4292L25.5083 76.7716L91.78 18.7588L23.7777 75.4292ZM93.487 20.1285L27.2375 78.1129L95.1926 21.497L93.487 20.1285ZM22.0456 74.0857L23.7777 75.4292L90.0715 17.3879L22.0456 74.0857ZM85.1459 11.6309L16.9338 71.3646L16.5172 71.807L85.1459 11.6309ZM85.1459 11.6309L16.5172 71.807L15.9933 72.823L85.1459 11.6309ZM95.8767 18.4288L97.5802 19.7972L97.4218 19.6529L95.8767 18.4288ZM96.0105 18.6067L97.714 19.975L97.5802 19.7972L96.0105 18.6067ZM96.1135 18.8116L97.817 20.1799L97.714 19.975L96.1135 18.8116ZM96.1821 19.0346L97.8856 20.4028L97.817 20.1799L96.1821 19.0346ZM95.7183 18.2846L95.8767 18.4288L97.4218 19.6529L95.7183 18.2846ZM96.2173 19.2721L97.9208 20.6403L97.8856 20.4028L96.2173 19.2721ZM95.8767 18.4288L96.0105 18.6067L97.5802 19.7972L95.8767 18.4288ZM96.2201 19.5207L97.9237 20.8889L97.9208 20.6403L96.2201 19.5207ZM91.78 18.7588L25.5083 76.7716L93.487 20.1285L91.78 18.7588ZM20.3121 72.7411L86.9996 11.3151L15.9933 72.823L20.3121 72.7411ZM96.0105 18.6067L96.1135 18.8116L97.714 19.975L96.0105 18.6067ZM96.1914 19.7771L97.8951 21.1451L97.9237 20.8889L96.1914 19.7771ZM96.1324 20.0376L97.8361 21.4056L97.8951 21.1451L96.1324 20.0376ZM20.3121 72.7411L22.0456 74.0857L88.3617 16.0159L20.3121 72.7411ZM96.1135 18.8116L96.1821 19.0346L97.817 20.1799L96.1135 18.8116ZM96.0438 20.299L97.7476 21.6669L97.8361 21.4056L96.0438 20.299ZM95.9267 20.5577L97.6305 21.9255L97.7476 21.6669L95.9267 20.5577ZM95.1926 21.497L96.8968 22.8645L97.1181 22.651L95.1926 21.497ZM95.782 20.8103L97.486 22.178L97.6305 21.9255L95.782 20.8103ZM95.414 21.2834L97.1181 22.651L97.3149 22.421L95.414 21.2834ZM95.6108 21.0534L97.3149 22.421L97.486 22.178L95.6108 21.0534ZM96.1821 19.0346L96.2173 19.2721L97.8856 20.4028L96.1821 19.0346ZM96.2173 19.2721L96.2201 19.5207L97.9208 20.6403L96.2173 19.2721ZM96.2201 19.5207L96.1914 19.7771L97.9237 20.8889L96.2201 19.5207ZM96.1914 19.7771L96.1324 20.0376L97.8951 21.1451L96.1914 19.7771ZM96.1324 20.0376L96.0438 20.299L97.8361 21.4056L96.1324 20.0376ZM96.0438 20.299L95.9267 20.5577L97.7476 21.6669L96.0438 20.299ZM95.9267 20.5577L95.782 20.8103L97.6305 21.9255L95.9267 20.5577ZM95.414 21.2834L95.1926 21.497L97.1181 22.651L95.414 21.2834ZM94.1719 17.0593L95.8767 18.4288L95.7183 18.2846L94.1719 17.0593ZM95.782 20.8103L95.6108 21.0534L97.486 22.178L95.782 20.8103ZM95.6108 21.0534L95.414 21.2834L97.3149 22.421L95.6108 21.0534ZM94.3056 17.2372L96.0105 18.6067L95.8767 18.4288L94.3056 17.2372ZM94.4085 17.4422L96.1135 18.8116L96.0105 18.6067L94.4085 17.4422ZM94.4771 17.6652L96.1821 19.0346L96.1135 18.8116L94.4771 17.6652ZM94.0134 16.9151L94.1719 17.0593L95.7183 18.2846L94.0134 16.9151ZM94.5123 17.9027L96.2173 19.2721L96.1821 19.0346L94.5123 17.9027ZM94.1719 17.0593L94.3056 17.2372L95.8767 18.4288L94.1719 17.0593ZM94.515 18.1515L96.2201 19.5207L96.2173 19.2721L94.515 18.1515ZM90.0715 17.3879L23.7777 75.4292L91.78 18.7588L90.0715 17.3879ZM94.3056 17.2372L94.4085 17.4422L96.0105 18.6067L94.3056 17.2372ZM94.4863 18.4079L96.1914 19.7771L96.2201 19.5207L94.4863 18.4079ZM94.4272 18.6685L96.1324 20.0376L96.1914 19.7771L94.4272 18.6685ZM94.4085 17.4422L94.4771 17.6652L96.1135 18.8116L94.4085 17.4422ZM94.3385 18.93L96.0438 20.299L96.1324 20.0376L94.3385 18.93ZM94.2214 19.1888L95.9267 20.5577L96.0438 20.299L94.2214 19.1888ZM93.487 20.1285L95.1926 21.497L95.414 21.2834L93.487 20.1285ZM94.0767 19.4415L95.782 20.8103L95.9267 20.5577L94.0767 19.4415ZM93.7085 19.9148L95.414 21.2834L95.6108 21.0534L93.7085 19.9148ZM93.9054 19.6846L95.6108 21.0534L95.782 20.8103L93.9054 19.6846ZM94.4771 17.6652L94.5123 17.9027L96.1821 19.0346L94.4771 17.6652ZM94.5123 17.9027L94.515 18.1515L96.2173 19.2721L94.5123 17.9027ZM94.515 18.1515L94.4863 18.4079L96.2201 19.5207L94.515 18.1515ZM94.4863 18.4079L94.4272 18.6685L96.1914 19.7771L94.4863 18.4079ZM94.4272 18.6685L94.3385 18.93L96.1324 20.0376L94.4272 18.6685ZM94.3385 18.93L94.2214 19.1888L96.0438 20.299L94.3385 18.93ZM94.2214 19.1888L94.0767 19.4415L95.9267 20.5577L94.2214 19.1888ZM93.7085 19.9148L93.487 20.1285L95.414 21.2834L93.7085 19.9148ZM92.4656 15.6887L94.1719 17.0593L94.0134 16.9151L92.4656 15.6887ZM94.0767 19.4415L93.9054 19.6846L95.782 20.8103L94.0767 19.4415ZM93.9054 19.6846L93.7085 19.9148L95.6108 21.0534L93.9054 19.6846ZM92.5993 15.8666L94.3056 17.2372L94.1719 17.0593L92.5993 15.8666ZM92.7022 16.0716L94.4085 17.4422L94.3056 17.2372L92.7022 16.0716ZM92.7707 16.2946L94.4771 17.6652L94.4085 17.4422L92.7707 16.2946ZM92.3071 15.5444L92.4656 15.6887L94.0134 16.9151L92.3071 15.5444ZM85.1459 11.6309L84.9084 11.8191L16.9338 71.3646L85.1459 11.6309ZM92.8059 16.5323L94.5123 17.9027L94.4771 17.6652L92.8059 16.5323ZM92.4656 15.6887L92.5993 15.8666L94.1719 17.0593L92.4656 15.6887ZM92.8086 16.781L94.515 18.1515L94.5123 17.9027L92.8086 16.781ZM88.3617 16.0159L22.0456 74.0857L90.0715 17.3879L88.3617 16.0159ZM92.5993 15.8666L92.7022 16.0716L94.3056 17.2372L92.5993 15.8666ZM92.7798 17.0375L94.4863 18.4079L94.515 18.1515L92.7798 17.0375ZM86.9996 11.3151L85.1459 11.6309L15.9933 72.823L86.9996 11.3151ZM92.7206 17.2982L94.4272 18.6685L94.4863 18.4079L92.7206 17.2982ZM92.7022 16.0716L92.7707 16.2946L94.4085 17.4422L92.7022 16.0716ZM92.6319 17.5598L94.3385 18.93L94.4272 18.6685L92.6319 17.5598ZM92.5146 17.8187L94.2214 19.1888L94.3385 18.93L92.5146 17.8187ZM91.78 18.7588L93.487 20.1285L93.7085 19.9148L91.78 18.7588ZM92.3699 18.0715L94.0767 19.4415L94.2214 19.1888L92.3699 18.0715ZM92.0016 18.545L93.7085 19.9148L93.9054 19.6846L92.0016 18.545ZM92.1985 18.3147L93.9054 19.6846L94.0767 19.4415L92.1985 18.3147ZM92.7707 16.2946L92.8059 16.5323L94.4771 17.6652L92.7707 16.2946ZM92.8059 16.5323L92.8086 16.781L94.5123 17.9027L92.8059 16.5323ZM28.9652 79.453L62.7626 136.099L30.6915 80.7921L28.9652 79.453ZM92.8086 16.781L92.7798 17.0375L94.515 18.1515L92.8086 16.781ZM92.7798 17.0375L92.7206 17.2982L94.4863 18.4079L92.7798 17.0375ZM92.7206 17.2982L92.6319 17.5598L94.4272 18.6685L92.7206 17.2982ZM92.6319 17.5598L92.5146 17.8187L94.3385 18.93L92.6319 17.5598ZM92.5146 17.8187L92.3699 18.0715L94.2214 19.1888L92.5146 17.8187ZM92.0016 18.545L91.78 18.7588L93.7085 19.9148L92.0016 18.545ZM90.7578 14.3169L92.4656 15.6887L92.3071 15.5444L90.7578 14.3169ZM92.3699 18.0715L92.1985 18.3147L94.0767 19.4415L92.3699 18.0715ZM92.1985 18.3147L92.0016 18.545L93.9054 19.6846L92.1985 18.3147ZM90.8916 14.4949L92.5993 15.8666L92.4656 15.6887L90.8916 14.4949ZM90.9944 14.6999L92.7022 16.0716L92.5993 15.8666L90.9944 14.6999ZM91.0629 14.923L92.7707 16.2946L92.7022 16.0716L91.0629 14.923ZM90.5994 14.1727L90.7578 14.3169L92.3071 15.5444L90.5994 14.1727ZM91.098 15.1606L92.8059 16.5323L92.7707 16.2946L91.098 15.1606ZM90.7578 14.3169L90.8916 14.4949L92.4656 15.6887L90.7578 14.3169ZM91.1007 15.4095L92.8086 16.781L92.8059 16.5323L91.1007 15.4095ZM86.6504 14.6428L20.3121 72.7411L88.3617 16.0159L86.6504 14.6428ZM90.8916 14.4949L90.9944 14.6999L92.5993 15.8666L90.8916 14.4949ZM91.0719 15.666L92.7798 17.0375L92.8086 16.781L91.0719 15.666ZM20.3121 72.7411L86.8721 14.4287L86.9996 11.3151L20.3121 72.7411ZM91.0126 15.9268L92.7206 17.2982L92.7798 17.0375L91.0126 15.9268ZM90.9944 14.6999L91.0629 14.923L92.7022 16.0716L90.9944 14.6999ZM90.9238 16.1884L92.6319 17.5598L92.7206 17.2982L90.9238 16.1884ZM90.8065 16.4474L92.5146 17.8187L92.6319 17.5598L90.8065 16.4474ZM90.0715 17.3879L91.78 18.7588L92.0016 18.545L90.0715 17.3879ZM90.6616 16.7003L92.3699 18.0715L92.5146 17.8187L90.6616 16.7003ZM90.2932 17.174L92.0016 18.545L92.1985 18.3147L90.2932 17.174ZM90.4902 16.9437L92.1985 18.3147L92.3699 18.0715L90.4902 16.9437ZM91.0629 14.923L91.098 15.1606L92.7707 16.2946L91.0629 14.923ZM91.098 15.1606L91.1007 15.4095L92.8059 16.5323L91.098 15.1606ZM27.2375 78.1129L61.0287 134.767L28.9652 79.453L27.2375 78.1129ZM20.3121 72.7411L86.6504 14.6428L86.8721 14.4287L20.3121 72.7411ZM91.1007 15.4095L91.0719 15.666L92.8086 16.781L91.1007 15.4095ZM91.0719 15.666L91.0126 15.9268L92.7798 17.0375L91.0719 15.666ZM91.0126 15.9268L90.9238 16.1884L92.7206 17.2982L91.0126 15.9268ZM90.9238 16.1884L90.8065 16.4474L92.6319 17.5598L90.9238 16.1884ZM90.8065 16.4474L90.6616 16.7003L92.5146 17.8187L90.8065 16.4474ZM90.2932 17.174L90.0715 17.3879L92.0016 18.545L90.2932 17.174ZM89.0487 12.944L90.7578 14.3169L90.5994 14.1727L89.0487 12.944ZM90.6616 16.7003L90.4902 16.9437L92.3699 18.0715L90.6616 16.7003ZM90.4902 16.9437L90.2932 17.174L92.1985 18.3147L90.4902 16.9437ZM89.1824 13.122L90.8916 14.4949L90.7578 14.3169L89.1824 13.122ZM89.2852 13.327L90.9944 14.6999L90.8916 14.4949L89.2852 13.327ZM89.3537 13.5501L91.0629 14.923L90.9944 14.6999L89.3537 13.5501ZM88.8903 12.7997L89.0487 12.944L90.5994 14.1727L88.8903 12.7997ZM89.3887 13.7879L91.098 15.1606L91.0629 14.923L89.3887 13.7879ZM89.0487 12.944L89.1824 13.122L90.7578 14.3169L89.0487 12.944ZM89.3914 14.0368L91.1007 15.4095L91.098 15.1606L89.3914 14.0368ZM89.1824 13.122L89.2852 13.327L90.8916 14.4949L89.1824 13.122ZM89.3625 14.2934L91.0719 15.666L91.1007 15.4095L89.3625 14.2934ZM89.3032 14.5543L91.0126 15.9268L91.0719 15.666L89.3032 14.5543ZM89.2852 13.327L89.3537 13.5501L90.9944 14.6999L89.2852 13.327ZM89.2143 14.816L90.9238 16.1884L91.0126 15.9268L89.2143 14.816ZM89.0969 15.0751L90.8065 16.4474L90.9238 16.1884L89.0969 15.0751ZM88.3617 16.0159L90.0715 17.3879L90.2932 17.174L88.3617 16.0159ZM88.952 15.328L90.6616 16.7003L90.8065 16.4474L88.952 15.328ZM88.5834 15.8019L90.2932 17.174L90.4902 16.9437L88.5834 15.8019ZM88.7805 15.5715L90.4902 16.9437L90.6616 16.7003L88.7805 15.5715ZM89.3537 13.5501L89.3887 13.7879L91.0629 14.923L89.3537 13.5501ZM89.3887 13.7879L89.3914 14.0368L91.098 15.1606L89.3887 13.7879ZM25.5083 76.7716L59.2934 133.434L27.2375 78.1129L25.5083 76.7716ZM89.3914 14.0368L89.3625 14.2934L91.1007 15.4095L89.3914 14.0368ZM89.3625 14.2934L89.3032 14.5543L91.0719 15.666L89.3625 14.2934ZM89.3032 14.5543L89.2143 14.816L91.0126 15.9268L89.3032 14.5543ZM89.2143 14.816L89.0969 15.0751L90.9238 16.1884L89.2143 14.816ZM85.6354 11.353L85.3893 11.4755L85.1459 11.6309L85.6354 11.353ZM89.0969 15.0751L88.952 15.328L90.8065 16.4474L89.0969 15.0751ZM88.5834 15.8019L88.3617 16.0159L90.2932 17.174L88.5834 15.8019ZM87.3381 11.5699L89.0487 12.944L88.8903 12.7997L87.3381 11.5699ZM88.952 15.328L88.7805 15.5715L90.6616 16.7003L88.952 15.328ZM88.7805 15.5715L88.5834 15.8019L90.4902 16.9437L88.7805 15.5715ZM86.1238 11.2073L85.6354 11.353L85.1459 11.6309L86.1238 11.2073ZM86.1238 11.2073L85.8813 11.2636L85.6354 11.353L86.1238 11.2073ZM87.4718 11.7479L89.1824 13.122L89.0487 12.944L87.4718 11.7479ZM87.5746 11.953L89.2852 13.327L89.1824 13.122L87.5746 11.953ZM86.9996 11.3151L86.1238 11.2073L85.1459 11.6309L86.9996 11.3151ZM86.5867 11.1944L86.36 11.1842L86.1238 11.2073L86.5867 11.1944ZM87.643 12.1762L89.3537 13.5501L89.2852 13.327L87.643 12.1762ZM87.1797 11.4257L87.3381 11.5699L88.8903 12.7997L87.1797 11.4257ZM86.9996 11.3151L86.5867 11.1944L86.1238 11.2073L86.9996 11.3151ZM87.678 12.4139L89.3887 13.7879L89.3537 13.5501L87.678 12.4139ZM87.3381 11.5699L87.4718 11.7479L89.0487 12.944L87.3381 11.5699ZM86.9996 11.3151L86.8009 11.238L86.5867 11.1944L86.9996 11.3151ZM87.6806 12.6629L89.3914 14.0368L89.3887 13.7879L87.6806 12.6629ZM87.4718 11.7479L87.5746 11.953L89.1824 13.122L87.4718 11.7479ZM87.6517 12.9196L89.3625 14.2934L89.3914 14.0368L87.6517 12.9196ZM87.5923 13.1806L89.3032 14.5543L89.3625 14.2934L87.5923 13.1806ZM87.5746 11.953L87.643 12.1762L89.2852 13.327L87.5746 11.953ZM87.3381 11.5699L87.1797 11.4257L86.9996 11.3151L87.3381 11.5699ZM87.5034 13.4424L89.2143 14.816L89.3032 14.5543L87.5034 13.4424ZM87.3859 13.7015L89.0969 15.0751L89.2143 14.816L87.3859 13.7015ZM86.6504 14.6428L88.3617 16.0159L88.5834 15.8019L86.6504 14.6428ZM87.2409 13.9546L88.952 15.328L89.0969 15.0751L87.2409 13.9546ZM86.8721 14.4287L88.5834 15.8019L88.7805 15.5715L86.8721 14.4287ZM87.0693 14.1981L88.7805 15.5715L88.952 15.328L87.0693 14.1981ZM87.643 12.1762L87.678 12.4139L89.3537 13.5501L87.643 12.1762ZM87.678 12.4139L87.6806 12.6629L89.3887 13.7879L87.678 12.4139ZM87.678 12.4139L87.3381 11.5699L86.9996 11.3151L87.678 12.4139ZM23.7777 75.4292L57.5567 132.1L25.5083 76.7716L23.7777 75.4292ZM87.5746 11.953L87.4718 11.7479L87.3381 11.5699L87.5746 11.953ZM87.6806 12.6629L87.6517 12.9196L89.3914 14.0368L87.6806 12.6629ZM87.6517 12.9196L87.5923 13.1806L89.3625 14.2934L87.6517 12.9196ZM87.678 12.4139L87.5746 11.953L87.3381 11.5699L87.678 12.4139ZM87.5923 13.1806L87.5034 13.4424L89.3032 14.5543L87.5923 13.1806ZM87.5034 13.4424L87.3859 13.7015L89.2143 14.816L87.5034 13.4424ZM86.8721 14.4287L87.678 12.4139L86.9996 11.3151L86.8721 14.4287ZM87.678 12.4139L87.643 12.1762L87.5746 11.953L87.678 12.4139ZM87.3859 13.7015L87.2409 13.9546L89.0969 15.0751L87.3859 13.7015ZM86.8721 14.4287L86.6504 14.6428L88.5834 15.8019L86.8721 14.4287ZM87.2409 13.9546L87.0693 14.1981L88.952 15.328L87.2409 13.9546ZM87.0693 14.1981L86.8721 14.4287L88.7805 15.5715L87.0693 14.1981ZM87.6517 12.9196L87.6806 12.6629L87.678 12.4139L87.6517 12.9196ZM87.5034 13.4424L87.6517 12.9196L87.678 12.4139L87.5034 13.4424ZM86.8721 14.4287L87.5034 13.4424L87.678 12.4139L86.8721 14.4287ZM87.5034 13.4424L87.5923 13.1806L87.6517 12.9196L87.5034 13.4424ZM87.2409 13.9546L87.3859 13.7015L87.5034 13.4424L87.2409 13.9546ZM86.8721 14.4287L87.2409 13.9546L87.5034 13.4424L86.8721 14.4287ZM86.8721 14.4287L87.0693 14.1981L87.2409 13.9546L86.8721 14.4287ZM22.0456 74.0857L55.8184 130.764L23.7777 75.4292L22.0456 74.0857ZM15.9933 72.823L15.9349 73.8304L50.8026 132.584L15.9933 72.823ZM15.9349 73.8304L16.1001 74.2619L50.8026 132.584L15.9349 73.8304ZM15.9933 72.823L52.5107 132.837L20.3121 72.7411L15.9933 72.823ZM20.3121 72.7411L54.0787 129.428L22.0456 74.0857L20.3121 72.7411ZM62.7626 136.099L64.495 137.43L30.6915 80.7921L62.7626 136.099ZM61.0287 134.767L62.7626 136.099L28.9652 79.453L61.0287 134.767ZM59.2934 133.434L61.0287 134.767L27.2375 78.1129L59.2934 133.434ZM57.5567 132.1L59.2934 133.434L25.5083 76.7716L57.5567 132.1ZM55.8184 130.764L57.5567 132.1L23.7777 75.4292L55.8184 130.764ZM54.0787 129.428L55.8184 130.764L22.0456 74.0857L54.0787 129.428ZM16.1001 74.2619L50.6693 132.399L50.8026 132.584L16.1001 74.2619ZM15.9933 72.823L50.8026 132.584L52.5107 132.837L15.9933 72.823ZM54.1811 129.639L54.0787 129.428L20.3121 72.7411L54.1811 129.639ZM54.2831 130.112L54.1811 129.639L20.3121 72.7411L54.2831 130.112ZM54.1037 131.161L54.2831 130.112L20.3121 72.7411L54.1037 131.161ZM52.5107 132.837L54.1037 131.161L20.3121 72.7411L52.5107 132.837ZM59.6507 139.399L61.3842 140.728L61.5644 140.845L59.6507 139.399ZM59.8309 139.515L61.5644 140.845L61.7634 140.927L59.8309 139.515ZM60.0298 139.598L61.7634 140.927L61.978 140.976L60.0298 139.598ZM62.8651 136.311L64.5975 137.642L64.495 137.43L62.8651 136.311ZM60.2445 139.647L61.978 140.976L62.2054 140.991L60.2445 139.647ZM62.9331 136.54L64.6655 137.871L64.5975 137.642L62.9331 136.54ZM60.4719 139.661L62.2054 140.991L62.4423 140.972L60.4719 139.661ZM59.8309 139.515L59.6507 139.399L61.5644 140.845L59.8309 139.515ZM62.9675 136.783L64.7 138.114L64.6655 137.871L62.9675 136.783ZM60.7088 139.642L62.4423 140.972L62.6857 140.919L60.7088 139.642ZM60.0298 139.598L59.8309 139.515L61.7634 140.927L60.0298 139.598ZM62.9693 137.038L64.7019 138.369L64.7 138.114L62.9693 137.038ZM60.9523 139.59L62.6857 140.919L62.9326 140.833L60.9523 139.59ZM62.7626 136.099L62.8651 136.311L64.495 137.43L62.7626 136.099ZM62.9396 137.299L64.6722 138.63L64.7019 138.369L62.9396 137.299ZM60.2445 139.647L60.0298 139.598L61.978 140.976L60.2445 139.647ZM61.1993 139.503L62.9326 140.833L63.1799 140.712L61.1993 139.503ZM62.8793 137.565L64.6119 138.895L64.6722 138.63L62.8793 137.565ZM61.4466 139.383L63.1799 140.712L63.4245 140.558L61.4466 139.383ZM62.8651 136.311L62.9331 136.54L64.5975 137.642L62.8651 136.311ZM62.7893 137.831L64.522 139.161L64.6119 138.895L62.7893 137.831ZM60.4719 139.661L60.2445 139.647L62.2054 140.991L60.4719 139.661ZM61.6913 139.228L63.4245 140.558L63.6634 140.371L61.6913 139.228ZM62.6707 138.093L64.4036 139.423L64.522 139.161L62.6707 138.093ZM61.9303 139.041L63.6634 140.371L63.8864 140.156L61.9303 139.041ZM62.5246 138.349L64.2575 139.679L64.4036 139.423L62.5246 138.349ZM62.1533 138.826L63.8864 140.156L64.0847 139.925L62.1533 138.826ZM62.3518 138.594L64.0847 139.925L64.2575 139.679L62.3518 138.594ZM62.9331 136.54L62.9675 136.783L64.6655 137.871L62.9331 136.54ZM60.7088 139.642L60.4719 139.661L62.4423 140.972L60.7088 139.642ZM62.9675 136.783L62.9693 137.038L64.7 138.114L62.9675 136.783ZM60.9523 139.59L60.7088 139.642L62.6857 140.919L60.9523 139.59ZM62.9693 137.038L62.9396 137.299L64.7019 138.369L62.9693 137.038ZM61.1993 139.503L60.9523 139.59L62.9326 140.833L61.1993 139.503ZM62.9396 137.299L62.8793 137.565L64.6722 138.63L62.9396 137.299ZM61.4466 139.383L61.1993 139.503L63.1799 140.712L61.4466 139.383ZM62.8793 137.565L62.7893 137.831L64.6119 138.895L62.8793 137.565ZM61.6913 139.228L61.4466 139.383L63.4245 140.558L61.6913 139.228ZM62.7893 137.831L62.6707 138.093L64.522 139.161L62.7893 137.831ZM61.9303 139.041L61.6913 139.228L63.6634 140.371L61.9303 139.041ZM57.9156 138.068L59.6507 139.399L59.8309 139.515L57.9156 138.068ZM62.6707 138.093L62.5246 138.349L64.4036 139.423L62.6707 138.093ZM62.1533 138.826L61.9303 139.041L63.8864 140.156L62.1533 138.826ZM62.5246 138.349L62.3518 138.594L64.2575 139.679L62.5246 138.349ZM62.3518 138.594L62.1533 138.826L64.0847 139.925L62.3518 138.594ZM58.0958 138.185L59.8309 139.515L60.0298 139.598L58.0958 138.185ZM58.2948 138.267L60.0298 139.598L60.2445 139.647L58.2948 138.267ZM61.1312 134.979L62.8651 136.311L62.7626 136.099L61.1312 134.979ZM58.5095 138.316L60.2445 139.647L60.4719 139.661L58.5095 138.316ZM61.1992 135.208L62.9331 136.54L62.8651 136.311L61.1992 135.208ZM58.7369 138.331L60.4719 139.661L60.7088 139.642L58.7369 138.331ZM58.0958 138.185L57.9156 138.068L59.8309 139.515L58.0958 138.185ZM61.2335 135.451L62.9675 136.783L62.9331 136.54L61.2335 135.451ZM58.9739 138.312L60.7088 139.642L60.9523 139.59L58.9739 138.312ZM58.2948 138.267L58.0958 138.185L60.0298 139.598L58.2948 138.267ZM61.2353 135.706L62.9693 137.038L62.9675 136.783L61.2353 135.706ZM59.2175 138.259L60.9523 139.59L61.1993 139.503L59.2175 138.259ZM61.0287 134.767L61.1312 134.979L62.7626 136.099L61.0287 134.767ZM61.2055 135.968L62.9396 137.299L62.9693 137.038L61.2055 135.968ZM58.5095 138.316L58.2948 138.267L60.2445 139.647L58.5095 138.316ZM59.4645 138.172L61.1993 139.503L61.4466 139.383L59.4645 138.172ZM61.1451 136.233L62.8793 137.565L62.9396 137.299L61.1451 136.233ZM59.7119 138.052L61.4466 139.383L61.6913 139.228L59.7119 138.052ZM61.1312 134.979L61.1992 135.208L62.8651 136.311L61.1312 134.979ZM61.0551 136.499L62.7893 137.831L62.8793 137.565L61.0551 136.499ZM58.7369 138.331L58.5095 138.316L60.4719 139.661L58.7369 138.331ZM59.9567 137.897L61.6913 139.228L61.9303 139.041L59.9567 137.897ZM60.9365 136.762L62.6707 138.093L62.7893 137.831L60.9365 136.762ZM60.1957 137.709L61.9303 139.041L62.1533 138.826L60.1957 137.709ZM60.7902 137.017L62.5246 138.349L62.6707 138.093L60.7902 137.017ZM60.4188 137.495L62.1533 138.826L62.3518 138.594L60.4188 137.495ZM60.6174 137.263L62.3518 138.594L62.5246 138.349L60.6174 137.263ZM61.1992 135.208L61.2335 135.451L62.9331 136.54L61.1992 135.208ZM58.9739 138.312L58.7369 138.331L60.7088 139.642L58.9739 138.312ZM61.2335 135.451L61.2353 135.706L62.9675 136.783L61.2335 135.451ZM59.2175 138.259L58.9739 138.312L60.9523 139.59L59.2175 138.259ZM61.2353 135.706L61.2055 135.968L62.9693 137.038L61.2353 135.706ZM59.4645 138.172L59.2175 138.259L61.1993 139.503L59.4645 138.172ZM61.2055 135.968L61.1451 136.233L62.9396 137.299L61.2055 135.968ZM59.7119 138.052L59.4645 138.172L61.4466 139.383L59.7119 138.052ZM61.1451 136.233L61.0551 136.499L62.8793 137.565L61.1451 136.233ZM59.9567 137.897L59.7119 138.052L61.6913 139.228L59.9567 137.897ZM61.0551 136.499L60.9365 136.762L62.7893 137.831L61.0551 136.499ZM60.1957 137.709L59.9567 137.897L61.9303 139.041L60.1957 137.709ZM56.1792 136.736L57.9156 138.068L58.0958 138.185L56.1792 136.736ZM60.9365 136.762L60.7902 137.017L62.6707 138.093L60.9365 136.762ZM60.4188 137.495L60.1957 137.709L62.1533 138.826L60.4188 137.495ZM60.7902 137.017L60.6174 137.263L62.5246 138.349L60.7902 137.017ZM60.6174 137.263L60.4188 137.495L62.3518 138.594L60.6174 137.263ZM56.3594 136.853L58.0958 138.185L58.2948 138.267L56.3594 136.853ZM56.5584 136.936L58.2948 138.267L58.5095 138.316L56.5584 136.936ZM59.3959 133.645L61.1312 134.979L61.0287 134.767L59.3959 133.645ZM56.7731 136.984L58.5095 138.316L58.7369 138.331L56.7731 136.984ZM59.4638 133.875L61.1992 135.208L61.1312 134.979L59.4638 133.875ZM57.0005 136.999L58.7369 138.331L58.9739 138.312L57.0005 136.999ZM56.3594 136.853L56.1792 136.736L58.0958 138.185L56.3594 136.853ZM59.4981 134.118L61.2335 135.451L61.1992 135.208L59.4981 134.118ZM57.2376 136.98L58.9739 138.312L59.2175 138.259L57.2376 136.98ZM56.5584 136.936L56.3594 136.853L58.2948 138.267L56.5584 136.936ZM59.4999 134.373L61.2353 135.706L61.2335 135.451L59.4999 134.373ZM57.4812 136.927L59.2175 138.259L59.4645 138.172L57.4812 136.927ZM59.2934 133.434L59.3959 133.645L61.0287 134.767L59.2934 133.434ZM59.47 134.635L61.2055 135.968L61.2353 135.706L59.47 134.635ZM56.7731 136.984L56.5584 136.936L58.5095 138.316L56.7731 136.984ZM57.7282 136.84L59.4645 138.172L59.7119 138.052L57.7282 136.84ZM59.4095 134.9L61.1451 136.233L61.2055 135.968L59.4095 134.9ZM57.9757 136.72L59.7119 138.052L59.9567 137.897L57.9757 136.72ZM59.3959 133.645L59.4638 133.875L61.1312 134.979L59.3959 133.645ZM59.3195 135.166L61.0551 136.499L61.1451 136.233L59.3195 135.166ZM57.0005 136.999L56.7731 136.984L58.7369 138.331L57.0005 136.999ZM58.2206 136.565L59.9567 137.897L60.1957 137.709L58.2206 136.565ZM59.2008 135.429L60.9365 136.762L61.0551 136.499L59.2008 135.429ZM58.4597 136.377L60.1957 137.709L60.4188 137.495L58.4597 136.377ZM59.0544 135.685L60.7902 137.017L60.9365 136.762L59.0544 135.685ZM58.6829 136.162L60.4188 137.495L60.6174 137.263L58.6829 136.162ZM58.8815 135.93L60.6174 137.263L60.7902 137.017L58.8815 135.93ZM59.4638 133.875L59.4981 134.118L61.1992 135.208L59.4638 133.875ZM57.2376 136.98L57.0005 136.999L58.9739 138.312L57.2376 136.98ZM59.4981 134.118L59.4999 134.373L61.2335 135.451L59.4981 134.118ZM57.4812 136.927L57.2376 136.98L59.2175 138.259L57.4812 136.927ZM59.4999 134.373L59.47 134.635L61.2353 135.706L59.4999 134.373ZM57.7282 136.84L57.4812 136.927L59.4645 138.172L57.7282 136.84ZM59.47 134.635L59.4095 134.9L61.2055 135.968L59.47 134.635ZM57.9757 136.72L57.7282 136.84L59.7119 138.052L57.9757 136.72ZM59.4095 134.9L59.3195 135.166L61.1451 136.233L59.4095 134.9ZM58.2206 136.565L57.9757 136.72L59.9567 137.897L58.2206 136.565ZM59.3195 135.166L59.2008 135.429L61.0551 136.499L59.3195 135.166ZM58.4597 136.377L58.2206 136.565L60.1957 137.709L58.4597 136.377ZM54.4412 135.404L56.1792 136.736L56.3594 136.853L54.4412 135.404ZM59.2008 135.429L59.0544 135.685L60.9365 136.762L59.2008 135.429ZM58.6829 136.162L58.4597 136.377L60.4188 137.495L58.6829 136.162ZM59.0544 135.685L58.8815 135.93L60.7902 137.017L59.0544 135.685ZM58.8815 135.93L58.6829 136.162L60.6174 137.263L58.8815 135.93ZM54.6214 135.52L56.3594 136.853L56.5584 136.936L54.6214 135.52ZM54.8205 135.603L56.5584 136.936L56.7731 136.984L54.8205 135.603ZM57.6591 132.311L59.3959 133.645L59.2934 133.434L57.6591 132.311ZM55.0352 135.651L56.7731 136.984L57.0005 136.999L55.0352 135.651ZM57.727 132.541L59.4638 133.875L59.3959 133.645L57.727 132.541ZM55.2627 135.666L57.0005 136.999L57.2376 136.98L55.2627 135.666ZM54.6214 135.52L54.4412 135.404L56.3594 136.853L54.6214 135.52ZM57.7613 132.784L59.4981 134.118L59.4638 133.875L57.7613 132.784ZM55.4998 135.647L57.2376 136.98L57.4812 136.927L55.4998 135.647ZM54.8205 135.603L54.6214 135.52L56.5584 136.936L54.8205 135.603ZM57.7629 133.039L59.4999 134.373L59.4981 134.118L57.7629 133.039ZM55.7434 135.594L57.4812 136.927L57.7282 136.84L55.7434 135.594ZM57.5567 132.1L57.6591 132.311L59.2934 133.434L57.5567 132.1ZM57.733 133.301L59.47 134.635L59.4999 134.373L57.733 133.301ZM55.0352 135.651L54.8205 135.603L56.7731 136.984L55.0352 135.651ZM55.9905 135.507L57.7282 136.84L57.9757 136.72L55.9905 135.507ZM57.6725 133.566L59.4095 134.9L59.47 134.635L57.6725 133.566ZM56.2381 135.386L57.9757 136.72L58.2206 136.565L56.2381 135.386ZM57.6591 132.311L57.727 132.541L59.3959 133.645L57.6591 132.311ZM57.5823 133.832L59.3195 135.166L59.4095 134.9L57.5823 133.832ZM55.2627 135.666L55.0352 135.651L57.0005 136.999L55.2627 135.666ZM56.483 135.232L58.2206 136.565L58.4597 136.377L56.483 135.232ZM57.4636 134.095L59.2008 135.429L59.3195 135.166L57.4636 134.095ZM56.7222 135.044L58.4597 136.377L58.6829 136.162L56.7222 135.044ZM57.3172 134.351L59.0544 135.685L59.2008 135.429L57.3172 134.351ZM56.9455 134.829L58.6829 136.162L58.8815 135.93L56.9455 134.829ZM57.1441 134.597L58.8815 135.93L59.0544 135.685L57.1441 134.597ZM57.727 132.541L57.7613 132.784L59.4638 133.875L57.727 132.541ZM55.4998 135.647L55.2627 135.666L57.2376 136.98L55.4998 135.647ZM57.7613 132.784L57.7629 133.039L59.4981 134.118L57.7613 132.784ZM55.7434 135.594L55.4998 135.647L57.4812 136.927L55.7434 135.594ZM57.7629 133.039L57.733 133.301L59.4999 134.373L57.7629 133.039ZM55.9905 135.507L55.7434 135.594L57.7282 136.84L55.9905 135.507ZM57.733 133.301L57.6725 133.566L59.47 134.635L57.733 133.301ZM56.2381 135.386L55.9905 135.507L57.9757 136.72L56.2381 135.386ZM57.6725 133.566L57.5823 133.832L59.4095 134.9L57.6725 133.566ZM56.483 135.232L56.2381 135.386L58.2206 136.565L56.483 135.232ZM57.5823 133.832L57.4636 134.095L59.3195 135.166L57.5823 133.832ZM56.7222 135.044L56.483 135.232L58.4597 136.377L56.7222 135.044ZM52.7018 134.07L54.4412 135.404L54.6214 135.52L52.7018 134.07ZM57.4636 134.095L57.3172 134.351L59.2008 135.429L57.4636 134.095ZM56.9455 134.829L56.7222 135.044L58.6829 136.162L56.9455 134.829ZM57.3172 134.351L57.1441 134.597L59.0544 135.685L57.3172 134.351ZM57.1441 134.597L56.9455 134.829L58.8815 135.93L57.1441 134.597ZM52.882 134.186L54.6214 135.52L54.8205 135.603L52.882 134.186ZM53.0811 134.269L54.8205 135.603L55.0352 135.651L53.0811 134.269ZM55.9209 130.976L57.6591 132.311L57.5567 132.1L55.9209 130.976ZM53.2959 134.317L55.0352 135.651L55.2627 135.666L53.2959 134.317ZM55.9887 131.205L57.727 132.541L57.6591 132.311L55.9887 131.205ZM53.5234 134.332L55.2627 135.666L55.4998 135.647L53.5234 134.332ZM52.882 134.186L52.7018 134.07L54.6214 135.52L52.882 134.186ZM56.0229 131.449L57.7613 132.784L57.727 132.541L56.0229 131.449ZM53.7605 134.313L55.4998 135.647L55.7434 135.594L53.7605 134.313ZM53.0811 134.269L52.882 134.186L54.8205 135.603L53.0811 134.269ZM56.0246 131.703L57.7629 133.039L57.7613 132.784L56.0246 131.703ZM54.0042 134.26L55.7434 135.594L55.9905 135.507L54.0042 134.26ZM55.8184 130.764L55.9209 130.976L57.5567 132.1L55.8184 130.764ZM55.9946 131.965L57.733 133.301L57.7629 133.039L55.9946 131.965ZM53.2959 134.317L53.0811 134.269L55.0352 135.651L53.2959 134.317ZM54.2514 134.173L55.9905 135.507L56.2381 135.386L54.2514 134.173ZM55.934 132.231L57.6725 133.566L57.733 133.301L55.934 132.231ZM54.499 134.052L56.2381 135.386L56.483 135.232L54.499 134.052ZM55.9209 130.976L55.9887 131.205L57.6591 132.311L55.9209 130.976ZM55.8438 132.497L57.5823 133.832L57.6725 133.566L55.8438 132.497ZM53.5234 134.332L53.2959 134.317L55.2627 135.666L53.5234 134.332ZM54.7439 133.898L56.483 135.232L56.7222 135.044L54.7439 133.898ZM55.7249 132.76L57.4636 134.095L57.5823 133.832L55.7249 132.76ZM54.9832 133.709L56.7222 135.044L56.9455 134.829L54.9832 133.709ZM55.5784 133.016L57.3172 134.351L57.4636 134.095L55.5784 133.016ZM55.2066 133.494L56.9455 134.829L57.1441 134.597L55.2066 133.494ZM55.4053 133.262L57.1441 134.597L57.3172 134.351L55.4053 133.262ZM55.9887 131.205L56.0229 131.449L57.727 132.541L55.9887 131.205ZM53.7605 134.313L53.5234 134.332L55.4998 135.647L53.7605 134.313ZM56.0229 131.449L56.0246 131.703L57.7613 132.784L56.0229 131.449ZM54.0042 134.26L53.7605 134.313L55.7434 135.594L54.0042 134.26ZM56.0246 131.703L55.9946 131.965L57.7629 133.039L56.0246 131.703ZM54.2514 134.173L54.0042 134.26L55.9905 135.507L54.2514 134.173ZM55.9946 131.965L55.934 132.231L57.733 133.301L55.9946 131.965ZM54.499 134.052L54.2514 134.173L56.2381 135.386L54.499 134.052ZM55.934 132.231L55.8438 132.497L57.6725 133.566L55.934 132.231ZM54.7439 133.898L54.499 134.052L56.483 135.232L54.7439 133.898ZM55.8438 132.497L55.7249 132.76L57.5823 133.832L55.8438 132.497ZM54.9832 133.709L54.7439 133.898L56.7222 135.044L54.9832 133.709ZM50.961 132.735L52.7018 134.07L52.882 134.186L50.961 132.735ZM55.7249 132.76L55.5784 133.016L57.4636 134.095L55.7249 132.76ZM55.2066 133.494L54.9832 133.709L56.9455 134.829L55.2066 133.494ZM55.5784 133.016L55.4053 133.262L57.3172 134.351L55.5784 133.016ZM55.4053 133.262L55.2066 133.494L57.1441 134.597L55.4053 133.262ZM51.1412 132.851L52.882 134.186L53.0811 134.269L51.1412 132.851ZM51.3402 132.934L53.0811 134.269L53.2959 134.317L51.3402 132.934ZM54.1811 129.639L55.9209 130.976L55.8184 130.764L54.1811 129.639ZM51.555 132.982L53.2959 134.317L53.5234 134.332L51.555 132.982ZM54.2489 129.869L55.9887 131.205L55.9209 130.976L54.2489 129.869ZM51.7826 132.997L53.5234 134.332L53.7605 134.313L51.7826 132.997ZM51.1412 132.851L50.961 132.735L52.882 134.186L51.1412 132.851ZM54.2831 130.112L56.0229 131.449L55.9887 131.205L54.2831 130.112ZM52.0197 132.977L53.7605 134.313L54.0042 134.26L52.0197 132.977ZM51.3402 132.934L51.1412 132.851L53.0811 134.269L51.3402 132.934ZM54.2847 130.367L56.0246 131.703L56.0229 131.449L54.2847 130.367ZM52.2635 132.924L54.0042 134.26L54.2514 134.173L52.2635 132.924ZM54.0787 129.428L54.1811 129.639L55.8184 130.764L54.0787 129.428ZM54.2547 130.629L55.9946 131.965L56.0246 131.703L54.2547 130.629ZM51.555 132.982L51.3402 132.934L53.2959 134.317L51.555 132.982ZM52.5107 132.837L54.2514 134.173L54.499 134.052L52.5107 132.837ZM54.194 130.895L55.934 132.231L55.9946 131.965L54.194 130.895ZM52.7584 132.717L54.499 134.052L54.7439 133.898L52.7584 132.717ZM54.1811 129.639L54.2489 129.869L55.9209 130.976L54.1811 129.639ZM54.1037 131.161L55.8438 132.497L55.934 132.231L54.1037 131.161ZM50.8026 132.584L50.961 132.735L51.1412 132.851L50.8026 132.584ZM51.7826 132.997L51.555 132.982L53.5234 134.332L51.7826 132.997ZM53.0034 132.562L54.7439 133.898L54.9832 133.709L53.0034 132.562ZM53.9848 131.424L55.7249 132.76L55.8438 132.497L53.9848 131.424ZM53.2428 132.374L54.9832 133.709L55.2066 133.494L53.2428 132.374ZM53.8383 131.68L55.5784 133.016L55.7249 132.76L53.8383 131.68ZM53.4662 132.159L55.2066 133.494L55.4053 133.262L53.4662 132.159ZM53.6651 131.926L55.4053 133.262L55.5784 133.016L53.6651 131.926ZM54.2489 129.869L54.2831 130.112L55.9887 131.205L54.2489 129.869ZM52.0197 132.977L51.7826 132.997L53.7605 134.313L52.0197 132.977ZM50.8026 132.584L51.1412 132.851L51.555 132.982L50.8026 132.584ZM54.2831 130.112L54.2847 130.367L56.0229 131.449L54.2831 130.112ZM52.2635 132.924L52.0197 132.977L54.0042 134.26L52.2635 132.924ZM51.1412 132.851L51.3402 132.934L51.555 132.982L51.1412 132.851ZM54.2847 130.367L54.2547 130.629L56.0246 131.703L54.2847 130.367ZM52.5107 132.837L52.2635 132.924L54.2514 134.173L52.5107 132.837ZM50.8026 132.584L51.555 132.982L52.5107 132.837L50.8026 132.584ZM54.2547 130.629L54.194 130.895L55.9946 131.965L54.2547 130.629ZM52.7584 132.717L52.5107 132.837L54.499 134.052L52.7584 132.717ZM54.194 130.895L54.1037 131.161L55.934 132.231L54.194 130.895ZM53.0034 132.562L52.7584 132.717L54.7439 133.898L53.0034 132.562ZM54.1037 131.161L53.9848 131.424L55.8438 132.497L54.1037 131.161ZM51.555 132.982L51.7826 132.997L52.0197 132.977L51.555 132.982ZM53.2428 132.374L53.0034 132.562L54.9832 133.709L53.2428 132.374ZM54.2831 130.112L54.2489 129.869L54.1811 129.639L54.2831 130.112ZM53.9848 131.424L53.8383 131.68L55.7249 132.76L53.9848 131.424ZM53.4662 132.159L53.2428 132.374L55.2066 133.494L53.4662 132.159ZM53.8383 131.68L53.6651 131.926L55.5784 133.016L53.8383 131.68ZM53.6651 131.926L53.4662 132.159L55.4053 133.262L53.6651 131.926ZM51.555 132.982L52.0197 132.977L52.5107 132.837L51.555 132.982ZM52.0197 132.977L52.2635 132.924L52.5107 132.837L52.0197 132.977ZM54.2547 130.629L54.2847 130.367L54.2831 130.112L54.2547 130.629ZM54.1037 131.161L54.2547 130.629L54.2831 130.112L54.1037 131.161ZM52.5107 132.837L52.7584 132.717L53.0034 132.562L52.5107 132.837ZM54.1037 131.161L54.194 130.895L54.2547 130.629L54.1037 131.161ZM52.5107 132.837L53.0034 132.562L53.4662 132.159L52.5107 132.837ZM52.5107 132.837L53.4662 132.159L54.1037 131.161L52.5107 132.837ZM53.0034 132.562L53.2428 132.374L53.4662 132.159L53.0034 132.562ZM53.8383 131.68L53.9848 131.424L54.1037 131.161L53.8383 131.68ZM53.4662 132.159L53.8383 131.68L54.1037 131.161L53.4662 132.159ZM53.4662 132.159L53.6651 131.926L53.8383 131.68L53.4662 132.159Z" fill="#074FA6"/>
<path d="M99.5004 60.8554L101.212 62.213L101.056 62.0689L99.5004 60.8554ZM99.6321 61.033L101.344 62.3906L101.212 62.213L99.6321 61.033ZM99.3442 60.7113L99.5004 60.8554L101.056 62.0689L99.3442 60.7113ZM99.5004 60.8554L99.6321 61.033L101.212 62.213L99.5004 60.8554ZM97.7872 59.4966L99.5004 60.8554L99.3442 60.7113L97.7872 59.4966ZM97.9189 59.6743L99.6321 61.033L99.5004 60.8554L97.9189 59.6743ZM97.631 59.3525L97.7872 59.4966L99.3442 60.7113L97.631 59.3525ZM97.7872 59.4966L97.9189 59.6743L99.5004 60.8554L97.7872 59.4966ZM96.0726 58.1368L97.7872 59.4966L97.631 59.3525L96.0726 58.1368ZM96.2042 58.3144L97.9189 59.6743L97.7872 59.4966L96.2042 58.3144ZM95.9164 57.9927L96.0726 58.1368L97.631 59.3525L95.9164 57.9927ZM96.0726 58.1368L96.2042 58.3144L97.7872 59.4966L96.0726 58.1368ZM94.3565 56.7758L96.0726 58.1368L95.9164 57.9927L94.3565 56.7758ZM94.4881 56.9534L96.2042 58.3144L96.0726 58.1368L94.4881 56.9534ZM94.2003 56.6317L94.3565 56.7758L95.9164 57.9927L94.2003 56.6317ZM94.3565 56.7758L94.4881 56.9534L96.0726 58.1368L94.3565 56.7758ZM92.639 55.4137L94.3565 56.7758L94.2003 56.6317L92.639 55.4137ZM92.7706 55.5913L94.4881 56.9534L94.3565 56.7758L92.7706 55.5913ZM92.4828 55.2696L92.639 55.4137L94.2003 56.6317L92.4828 55.2696ZM92.639 55.4137L92.7706 55.5913L94.3565 56.7758L92.639 55.4137ZM88.2933 54.5076L88.0972 54.737L87.9263 54.9793L88.2933 54.5076ZM88.2933 54.5076L87.9263 54.9793L87.6643 55.4893L88.2933 54.5076ZM87.9263 54.9793L87.7817 55.2312L87.6643 55.4893L87.9263 54.9793ZM88.7497 54.1073L88.5137 54.2946L88.2933 54.5076L88.7497 54.1073ZM89.2355 53.8312L88.2933 54.5076L87.6643 55.4893L89.2355 53.8312ZM89.2355 53.8312L88.7497 54.1073L88.2933 54.5076L89.2355 53.8312ZM87.6643 55.4893L87.5751 55.75L87.5151 56.0099L87.6643 55.4893ZM89.2355 53.8312L88.9913 53.9528L88.7497 54.1073L89.2355 53.8312ZM90.9201 54.0504L92.639 55.4137L92.4828 55.2696L90.9201 54.0504ZM87.6643 55.4893L87.5151 56.0099L87.4866 56.5139L87.6643 55.4893ZM87.5151 56.0099L87.4853 56.2657L87.4866 56.5139L87.5151 56.0099ZM89.7196 53.6868L89.4793 53.7425L89.2355 53.8312L89.7196 53.6868ZM91.0517 54.2281L92.7706 55.5913L92.639 55.4137L91.0517 54.2281ZM90.1779 53.6747L89.7196 53.6868L89.2355 53.8312L90.1779 53.6747ZM87.4866 56.5139L87.52 56.751L87.5866 56.9736L87.4866 56.5139ZM90.1779 53.6747L89.9535 53.6642L89.7196 53.6868L90.1779 53.6747ZM90.7639 53.9063L90.9201 54.0504L92.4828 55.2696L90.7639 53.9063ZM90.9201 54.0504L90.1779 53.6747L89.2355 53.8312L90.9201 54.0504ZM90.9201 54.0504L91.0517 54.2281L92.639 55.4137L90.9201 54.0504ZM90.5861 53.7957L90.3898 53.7185L90.1779 53.6747L90.5861 53.7957ZM90.9201 54.0504L90.5861 53.7957L90.1779 53.6747L90.9201 54.0504ZM90.9201 54.0504L90.7639 53.9063L90.5861 53.7957L90.9201 54.0504ZM99.6321 61.033L134.602 118.463L101.344 62.3906L99.6321 61.033ZM97.9189 59.6743L132.883 117.112L99.6321 61.033L97.9189 59.6743ZM96.2042 58.3144L131.162 115.76L97.9189 59.6743L96.2042 58.3144ZM94.4881 56.9534L129.44 114.407L96.2042 58.3144L94.4881 56.9534ZM92.7706 55.5913L127.717 113.052L94.4881 56.9534L92.7706 55.5913ZM89.2355 53.8312L87.6643 55.4893L121.705 113.23L89.2355 53.8312ZM87.6643 55.4893L87.4866 56.5139L121.705 113.23L87.6643 55.4893ZM87.4866 56.5139L87.5866 56.9736L121.705 113.23L87.4866 56.5139ZM87.5866 56.9736L87.6874 57.1784L121.705 113.23L87.5866 56.9736ZM91.0517 54.2281L125.992 111.697L92.7706 55.5913L91.0517 54.2281ZM126.112 113.154L90.9201 54.0504L89.2355 53.8312L126.112 113.154ZM125.992 111.697L91.0517 54.2281L90.9201 54.0504L125.992 111.697ZM134.602 118.463L136.32 119.813L101.344 62.3906L134.602 118.463ZM132.883 117.112L134.602 118.463L99.6321 61.033L132.883 117.112ZM63.103 181.398L64.8449 182.717L65.0228 182.833L63.103 181.398ZM63.2809 181.514L65.0228 182.833L65.2194 182.916L63.2809 181.514ZM63.4775 181.597L65.2194 182.916L65.4317 182.965L63.4775 181.597ZM63.6898 181.646L65.4317 182.965L65.6567 182.98L63.6898 181.646ZM63.9148 181.661L65.6567 182.98L65.8913 182.962L63.9148 181.661ZM63.2809 181.514L63.103 181.398L65.0228 182.833L63.2809 181.514ZM64.1495 181.642L65.8913 182.962L66.1325 182.909L64.1495 181.642ZM63.4775 181.597L63.2809 181.514L65.2194 182.916L63.4775 181.597ZM131.162 115.76L132.883 117.112L97.9189 59.6743L131.162 115.76ZM64.3908 181.59L66.1325 182.909L66.3773 182.824L64.3908 181.59ZM63.6898 181.646L63.4775 181.597L65.4317 182.965L63.6898 181.646ZM64.6357 181.504L66.3773 182.824L66.6227 182.704L64.6357 181.504ZM64.8811 181.385L66.6227 182.704L66.8655 182.551L64.8811 181.385ZM63.9148 181.661L63.6898 181.646L65.6567 182.98L63.9148 181.661ZM65.124 181.231L66.8655 182.551L67.1028 182.364L65.124 181.231ZM64.1495 181.642L63.9148 181.661L65.8913 182.962L64.1495 181.642ZM64.3908 181.59L64.1495 181.642L66.1325 182.909L64.3908 181.59ZM64.6357 181.504L64.3908 181.59L66.3773 182.824L64.6357 181.504ZM64.8811 181.385L64.6357 181.504L66.6227 182.704L64.8811 181.385ZM65.124 181.231L64.8811 181.385L66.8655 182.551L65.124 181.231ZM65.3614 181.045L65.124 181.231L67.1028 182.364L65.3614 181.045ZM61.3596 180.078L63.103 181.398L63.2809 181.514L61.3596 180.078ZM61.5375 180.194L63.2809 181.514L63.4775 181.597L61.5375 180.194ZM61.7342 180.277L63.4775 181.597L63.6898 181.646L61.7342 180.277ZM61.9465 180.326L63.6898 181.646L63.9148 181.661L61.9465 180.326ZM62.1716 180.341L63.9148 181.661L64.1495 181.642L62.1716 180.341ZM61.5375 180.194L61.3596 180.078L63.2809 181.514L61.5375 180.194ZM62.4063 180.322L64.1495 181.642L64.3908 181.59L62.4063 180.322ZM61.7342 180.277L61.5375 180.194L63.4775 181.597L61.7342 180.277ZM129.44 114.407L131.162 115.76L96.2042 58.3144L129.44 114.407ZM62.6476 180.27L64.3908 181.59L64.6357 181.504L62.6476 180.27ZM61.9465 180.326L61.7342 180.277L63.6898 181.646L61.9465 180.326ZM62.8925 180.184L64.6357 181.504L64.8811 181.385L62.8925 180.184ZM63.138 180.064L64.8811 181.385L65.124 181.231L63.138 180.064ZM62.1716 180.341L61.9465 180.326L63.9148 181.661L62.1716 180.341ZM63.381 179.911L65.124 181.231L65.3614 181.045L63.381 179.911ZM62.4063 180.322L62.1716 180.341L64.1495 181.642L62.4063 180.322ZM62.6476 180.27L62.4063 180.322L64.3908 181.59L62.6476 180.27ZM62.8925 180.184L62.6476 180.27L64.6357 181.504L62.8925 180.184ZM63.138 180.064L62.8925 180.184L64.8811 181.385L63.138 180.064ZM63.381 179.911L63.138 180.064L65.124 181.231L63.381 179.911ZM63.6184 179.724L63.381 179.911L65.3614 181.045L63.6184 179.724ZM59.6148 178.756L61.3596 180.078L61.5375 180.194L59.6148 178.756ZM59.7927 178.873L61.5375 180.194L61.7342 180.277L59.7927 178.873ZM59.9893 178.956L61.7342 180.277L61.9465 180.326L59.9893 178.956ZM60.2017 179.004L61.9465 180.326L62.1716 180.341L60.2017 179.004ZM60.4268 179.02L62.1716 180.341L62.4063 180.322L60.4268 179.02ZM59.7927 178.873L59.6148 178.756L61.5375 180.194L59.7927 178.873ZM60.6616 179.001L62.4063 180.322L62.6476 180.27L60.6616 179.001ZM59.9893 178.956L59.7927 178.873L61.7342 180.277L59.9893 178.956ZM127.717 113.052L129.44 114.407L94.4881 56.9534L127.717 113.052ZM60.9029 178.948L62.6476 180.27L62.8925 180.184L60.9029 178.948ZM60.2017 179.004L59.9893 178.956L61.9465 180.326L60.2017 179.004ZM61.1479 178.862L62.8925 180.184L63.138 180.064L61.1479 178.862ZM61.3934 178.743L63.138 180.064L63.381 179.911L61.3934 178.743ZM60.4268 179.02L60.2017 179.004L62.1716 180.341L60.4268 179.02ZM61.6365 178.589L63.381 179.911L63.6184 179.724L61.6365 178.589ZM60.6616 179.001L60.4268 179.02L62.4063 180.322L60.6616 179.001ZM60.9029 178.948L60.6616 179.001L62.6476 180.27L60.9029 178.948ZM61.1479 178.862L60.9029 178.948L62.8925 180.184L61.1479 178.862ZM61.3934 178.743L61.1479 178.862L63.138 180.064L61.3934 178.743ZM61.6365 178.589L61.3934 178.743L63.381 179.911L61.6365 178.589ZM61.874 178.402L61.6365 178.589L63.6184 179.724L61.874 178.402ZM57.8685 177.434L59.6148 178.756L59.7927 178.873L57.8685 177.434ZM58.0464 177.551L59.7927 178.873L59.9893 178.956L58.0464 177.551ZM58.2431 177.633L59.9893 178.956L60.2017 179.004L58.2431 177.633ZM58.4555 177.682L60.2017 179.004L60.4268 179.02L58.4555 177.682ZM65.3614 181.045L67.1028 182.364L135.496 122.739L65.3614 181.045ZM58.6806 177.697L60.4268 179.02L60.6616 179.001L58.6806 177.697ZM58.0464 177.551L57.8685 177.434L59.7927 178.873L58.0464 177.551ZM58.9154 177.678L60.6616 179.001L60.9029 178.948L58.9154 177.678ZM58.2431 177.633L58.0464 177.551L59.9893 178.956L58.2431 177.633ZM125.992 111.697L127.717 113.052L92.7706 55.5913L125.992 111.697ZM59.1568 177.626L60.9029 178.948L61.1479 178.862L59.1568 177.626ZM58.4555 177.682L58.2431 177.633L60.2017 179.004L58.4555 177.682ZM59.4018 177.54L61.1479 178.862L61.3934 178.743L59.4018 177.54ZM59.6474 177.42L61.3934 178.743L61.6365 178.589L59.6474 177.42ZM58.6806 177.697L58.4555 177.682L60.4268 179.02L58.6806 177.697ZM59.8906 177.266L61.6365 178.589L61.874 178.402L59.8906 177.266ZM126.112 113.154L89.2355 53.8312L121.705 113.23L126.112 113.154ZM58.9154 177.678L58.6806 177.697L60.6616 179.001L58.9154 177.678ZM59.1568 177.626L58.9154 177.678L60.9029 178.948L59.1568 177.626ZM59.4018 177.54L59.1568 177.626L61.1479 178.862L59.4018 177.54ZM59.6474 177.42L59.4018 177.54L61.3934 178.743L59.6474 177.42ZM59.8906 177.266L59.6474 177.42L61.6365 178.589L59.8906 177.266ZM60.1282 177.079L59.8906 177.266L61.874 178.402L60.1282 177.079ZM56.1208 176.111L57.8685 177.434L58.0464 177.551L56.1208 176.111ZM56.2987 176.227L58.0464 177.551L58.2431 177.633L56.2987 176.227ZM126.164 112.134L125.992 111.697L90.9201 54.0504L126.164 112.134ZM56.4953 176.31L58.2431 177.633L58.4555 177.682L56.4953 176.31ZM56.7078 176.359L58.4555 177.682L58.6806 177.697L56.7078 176.359ZM63.6184 179.724L65.3614 181.045L133.777 121.391L63.6184 179.724ZM126.112 113.154L126.164 112.134L90.9201 54.0504L126.112 113.154ZM56.9329 176.374L58.6806 177.697L58.9154 177.678L56.9329 176.374ZM56.2987 176.227L56.1208 176.111L58.0464 177.551L56.2987 176.227ZM57.1677 176.355L58.9154 177.678L59.1568 177.626L57.1677 176.355ZM56.4953 176.31L56.2987 176.227L58.2431 177.633L56.4953 176.31ZM57.4092 176.302L59.1568 177.626L59.4018 177.54L57.4092 176.302ZM56.7078 176.359L56.4953 176.31L58.4555 177.682L56.7078 176.359ZM57.6543 176.216L59.4018 177.54L59.6474 177.42L57.6543 176.216ZM57.9 176.096L59.6474 177.42L59.8906 177.266L57.9 176.096ZM56.9329 176.374L56.7078 176.359L58.6806 177.697L56.9329 176.374ZM58.1432 175.943L59.8906 177.266L60.1282 177.079L58.1432 175.943ZM57.1677 176.355L56.9329 176.374L58.9154 177.678L57.1677 176.355ZM57.4092 176.302L57.1677 176.355L59.1568 177.626L57.4092 176.302ZM57.6543 176.216L57.4092 176.302L59.4018 177.54L57.6543 176.216ZM54.7031 171.731L54.5054 171.962L54.3329 172.207L54.7031 171.731ZM57.9 176.096L57.6543 176.216L59.6474 177.42L57.9 176.096ZM54.7031 171.731L54.3329 172.207L54.0679 172.724L54.7031 171.731ZM54.3329 172.207L54.1868 172.462L54.0679 172.724L54.3329 172.207ZM58.1432 175.943L57.9 176.096L59.8906 177.266L58.1432 175.943ZM54.0679 172.724L53.9774 172.989L53.9161 173.254L54.0679 172.724ZM58.3808 175.755L58.1432 175.943L60.1282 177.079L58.3808 175.755ZM54.3716 174.786L56.1208 176.111L56.2987 176.227L54.3716 174.786ZM54.7031 171.731L54.0679 172.724L53.8855 173.769L54.7031 171.731ZM54.0679 172.724L53.9161 173.254L53.8855 173.769L54.0679 172.724ZM54.5495 174.903L56.2987 176.227L56.4953 176.31L54.5495 174.903ZM53.9161 173.254L53.8851 173.515L53.8855 173.769L53.9161 173.254ZM54.7461 174.985L56.4953 176.31L56.7078 176.359L54.7461 174.985ZM53.8855 173.769L53.9181 174.012L53.984 174.241L53.8855 173.769ZM54.7031 171.731L53.8855 173.769L54.5495 174.903L54.7031 171.731ZM54.9586 175.034L56.7078 176.359L56.9329 176.374L54.9586 175.034ZM61.874 178.402L63.6184 179.724L132.057 120.041L61.874 178.402ZM53.8855 173.769L53.984 174.241L54.2155 174.636L53.8855 173.769ZM55.1838 175.049L56.9329 176.374L57.1677 176.355L55.1838 175.049ZM54.5495 174.903L54.3716 174.786L56.2987 176.227L54.5495 174.903ZM55.4186 175.03L57.1677 176.355L57.4092 176.302L55.4186 175.03ZM53.984 174.241L54.0843 174.452L54.2155 174.636L53.984 174.241ZM54.7461 174.985L54.5495 174.903L56.4953 176.31L54.7461 174.985ZM53.8855 173.769L54.2155 174.636L54.5495 174.903L53.8855 173.769ZM55.6602 174.978L57.4092 176.302L57.6543 176.216L55.6602 174.978ZM54.9586 175.034L54.7461 174.985L56.7078 176.359L54.9586 175.034ZM55.9053 174.891L57.6543 176.216L57.9 176.096L55.9053 174.891ZM56.151 174.771L57.9 176.096L58.1432 175.943L56.151 174.771ZM54.2155 174.636L54.3716 174.786L54.5495 174.903L54.2155 174.636ZM55.1838 175.049L54.9586 175.034L56.9329 176.374L55.1838 175.049ZM56.3943 174.618L58.1432 175.943L58.3808 175.755L56.3943 174.618ZM55.4186 175.03L55.1838 175.049L57.1677 176.355L55.4186 175.03ZM55.6602 174.978L55.4186 175.03L57.4092 176.302L55.6602 174.978ZM54.5495 174.903L54.7461 174.985L54.9586 175.034L54.5495 174.903ZM55.9053 174.891L55.6602 174.978L57.6543 176.216L55.9053 174.891ZM54.5495 174.903L54.9586 175.034L55.4186 175.03L54.5495 174.903ZM56.151 174.771L55.9053 174.891L57.9 176.096L56.151 174.771ZM56.3943 174.618L56.151 174.771L58.1432 175.943L56.3943 174.618ZM54.9586 175.034L55.1838 175.049L55.4186 175.03L54.9586 175.034ZM56.632 174.43L56.3943 174.618L58.3808 175.755L56.632 174.43ZM54.5495 174.903L55.4186 175.03L56.3943 174.618L54.5495 174.903ZM55.4186 175.03L55.6602 174.978L55.9053 174.891L55.4186 175.03ZM55.4186 175.03L55.9053 174.891L56.3943 174.618L55.4186 175.03ZM133.777 121.391L65.3614 181.045L135.496 122.739L133.777 121.391ZM55.9053 174.891L56.151 174.771L56.3943 174.618L55.9053 174.891ZM60.1282 177.079L61.874 178.402L130.336 118.689L60.1282 177.079ZM132.057 120.041L63.6184 179.724L133.777 121.391L132.057 120.041ZM58.3808 175.755L60.1282 177.079L128.613 117.337L58.3808 175.755ZM121.705 113.23L54.9251 171.517L54.7031 171.731L121.705 113.23ZM121.705 113.23L54.7031 171.731L54.5495 174.903L121.705 113.23ZM134.706 118.672L136.423 120.022L136.32 119.813L134.706 118.672ZM134.775 118.9L136.492 120.249L136.423 120.022L134.775 118.9ZM134.81 119.141L136.528 120.491L136.492 120.249L134.81 119.141ZM130.336 118.689L61.874 178.402L132.057 120.041L130.336 118.689ZM134.813 119.394L136.531 120.743L136.528 120.491L134.813 119.394ZM56.632 174.43L58.3808 175.755L126.889 115.984L56.632 174.43ZM134.602 118.463L134.706 118.672L136.32 119.813L134.602 118.463ZM134.784 119.654L136.502 121.003L136.531 120.743L134.784 119.654ZM134.724 119.918L136.442 121.267L136.502 121.003L134.724 119.918ZM134.706 118.672L134.775 118.9L136.423 120.022L134.706 118.672ZM134.635 120.182L136.353 121.532L136.442 121.267L134.635 120.182ZM134.517 120.444L136.235 121.793L136.353 121.532L134.517 120.444ZM133.777 121.391L135.496 122.739L135.719 122.525L133.777 121.391ZM134.371 120.699L136.089 122.048L136.235 121.793L134.371 120.699ZM134 121.176L135.719 122.525L135.917 122.293L134 121.176ZM134.198 120.944L135.917 122.293L136.089 122.048L134.198 120.944ZM134.775 118.9L134.81 119.141L136.492 120.249L134.775 118.9ZM134.81 119.141L134.813 119.394L136.528 120.491L134.81 119.141ZM134.813 119.394L134.784 119.654L136.531 120.743L134.813 119.394ZM134.784 119.654L134.724 119.918L136.502 121.003L134.784 119.654ZM54.5495 174.903L56.3943 174.618L126.112 113.154L54.5495 174.903ZM134.724 119.918L134.635 120.182L136.442 121.267L134.724 119.918ZM134.635 120.182L134.517 120.444L136.353 121.532L134.635 120.182ZM134.517 120.444L134.371 120.699L136.235 121.793L134.517 120.444ZM134 121.176L133.777 121.391L135.719 122.525L134 121.176ZM134.371 120.699L134.198 120.944L136.089 122.048L134.371 120.699ZM134.198 120.944L134 121.176L135.917 122.293L134.198 120.944ZM56.3943 174.618L56.632 174.43L125.163 114.629L56.3943 174.618ZM132.986 117.321L134.706 118.672L134.602 118.463L132.986 117.321ZM133.055 117.549L134.775 118.9L134.706 118.672L133.055 117.549ZM133.091 117.79L134.81 119.141L134.775 118.9L133.091 117.79ZM128.613 117.337L60.1282 177.079L130.336 118.689L128.613 117.337ZM133.093 118.043L134.813 119.394L134.81 119.141L133.093 118.043ZM132.883 117.112L132.986 117.321L134.602 118.463L132.883 117.112ZM133.064 118.303L134.784 119.654L134.813 119.394L133.064 118.303ZM133.005 118.567L134.724 119.918L134.784 119.654L133.005 118.567ZM132.986 117.321L133.055 117.549L134.706 118.672L132.986 117.321ZM132.915 118.832L134.635 120.182L134.724 119.918L132.915 118.832ZM132.797 119.094L134.517 120.444L134.635 120.182L132.797 119.094ZM132.057 120.041L133.777 121.391L134 121.176L132.057 120.041ZM132.651 119.349L134.371 120.699L134.517 120.444L132.651 119.349ZM132.28 119.826L134 121.176L134.198 120.944L132.28 119.826ZM132.479 119.594L134.198 120.944L134.371 120.699L132.479 119.594ZM133.055 117.549L133.091 117.79L134.775 118.9L133.055 117.549ZM133.091 117.79L133.093 118.043L134.81 119.141L133.091 117.79ZM133.093 118.043L133.064 118.303L134.813 119.394L133.093 118.043ZM133.064 118.303L133.005 118.567L134.784 119.654L133.064 118.303ZM133.005 118.567L132.915 118.832L134.724 119.918L133.005 118.567ZM132.915 118.832L132.797 119.094L134.635 120.182L132.915 118.832ZM132.797 119.094L132.651 119.349L134.517 120.444L132.797 119.094ZM132.28 119.826L132.057 120.041L134 121.176L132.28 119.826ZM132.651 119.349L132.479 119.594L134.371 120.699L132.651 119.349ZM132.479 119.594L132.28 119.826L134.198 120.944L132.479 119.594ZM131.266 115.969L132.986 117.321L132.883 117.112L131.266 115.969ZM131.335 116.197L133.055 117.549L132.986 117.321L131.335 116.197ZM131.37 116.438L133.091 117.79L133.055 117.549L131.37 116.438ZM126.889 115.984L58.3808 175.755L128.613 117.337L126.889 115.984ZM131.373 116.691L133.093 118.043L133.091 117.79L131.373 116.691ZM131.162 115.76L131.266 115.969L132.883 117.112L131.162 115.76ZM131.344 116.951L133.064 118.303L133.093 118.043L131.344 116.951ZM131.284 117.216L133.005 118.567L133.064 118.303L131.284 117.216ZM131.266 115.969L131.335 116.197L132.986 117.321L131.266 115.969ZM131.194 117.48L132.915 118.832L133.005 118.567L131.194 117.48ZM131.076 117.742L132.797 119.094L132.915 118.832L131.076 117.742ZM130.336 118.689L132.057 120.041L132.28 119.826L130.336 118.689ZM130.93 117.997L132.651 119.349L132.797 119.094L130.93 117.997ZM130.559 118.475L132.28 119.826L132.479 119.594L130.559 118.475ZM130.758 118.243L132.479 119.594L132.651 119.349L130.758 118.243ZM131.335 116.197L131.37 116.438L133.055 117.549L131.335 116.197ZM131.37 116.438L131.373 116.691L133.091 117.79L131.37 116.438ZM131.373 116.691L131.344 116.951L133.093 118.043L131.373 116.691ZM131.344 116.951L131.284 117.216L133.064 118.303L131.344 116.951ZM131.284 117.216L131.194 117.48L133.005 118.567L131.284 117.216ZM121.705 113.23L54.5495 174.903L126.112 113.154L121.705 113.23ZM131.194 117.48L131.076 117.742L132.915 118.832L131.194 117.48ZM131.076 117.742L130.93 117.997L132.797 119.094L131.076 117.742ZM130.559 118.475L130.336 118.689L132.28 119.826L130.559 118.475ZM130.93 117.997L130.758 118.243L132.651 119.349L130.93 117.997ZM130.758 118.243L130.559 118.475L132.479 119.594L130.758 118.243ZM129.544 114.616L131.266 115.969L131.162 115.76L129.544 114.616ZM129.612 114.843L131.335 116.197L131.266 115.969L129.612 114.843ZM129.648 115.085L131.37 116.438L131.335 116.197L129.648 115.085ZM125.163 114.629L56.632 174.43L126.889 115.984L125.163 114.629ZM129.65 115.338L131.373 116.691L131.37 116.438L129.65 115.338ZM129.44 114.407L129.544 114.616L131.162 115.76L129.44 114.407ZM129.621 115.598L131.344 116.951L131.373 116.691L129.621 115.598ZM129.561 115.863L131.284 117.216L131.344 116.951L129.561 115.863ZM129.544 114.616L129.612 114.843L131.266 115.969L129.544 114.616ZM129.472 116.128L131.194 117.48L131.284 117.216L129.472 116.128ZM129.354 116.389L131.076 117.742L131.194 117.48L129.354 116.389ZM128.613 117.337L130.336 118.689L130.559 118.475L128.613 117.337ZM129.208 116.645L130.93 117.997L131.076 117.742L129.208 116.645ZM128.836 117.122L130.559 118.475L130.758 118.243L128.836 117.122ZM129.035 116.89L130.758 118.243L130.93 117.997L129.035 116.89ZM129.612 114.843L129.648 115.085L131.335 116.197L129.612 114.843ZM56.3943 174.618L125.585 114.182L126.112 113.154L56.3943 174.618ZM56.3943 174.618L125.163 114.629L125.585 114.182L56.3943 174.618ZM129.648 115.085L129.65 115.338L131.37 116.438L129.648 115.085ZM129.65 115.338L129.621 115.598L131.373 116.691L129.65 115.338ZM129.621 115.598L129.561 115.863L131.344 116.951L129.621 115.598ZM129.561 115.863L129.472 116.128L131.284 117.216L129.561 115.863ZM129.472 116.128L129.354 116.389L131.194 117.48L129.472 116.128ZM129.354 116.389L129.208 116.645L131.076 117.742L129.354 116.389ZM128.836 117.122L128.613 117.337L130.559 118.475L128.836 117.122ZM129.208 116.645L129.035 116.89L130.93 117.997L129.208 116.645ZM129.035 116.89L128.836 117.122L130.758 118.243L129.035 116.89ZM127.82 113.262L129.544 114.616L129.44 114.407L127.82 113.262ZM127.889 113.489L129.612 114.843L129.544 114.616L127.889 113.489ZM127.924 113.731L129.648 115.085L129.612 114.843L127.924 113.731ZM127.927 113.984L129.65 115.338L129.648 115.085L127.927 113.984ZM127.717 113.052L127.82 113.262L129.44 114.407L127.717 113.052ZM127.897 114.244L129.621 115.598L129.65 115.338L127.897 114.244ZM127.838 114.509L129.561 115.863L129.621 115.598L127.838 114.509ZM127.82 113.262L127.889 113.489L129.544 114.616L127.82 113.262ZM127.748 114.774L129.472 116.128L129.561 115.863L127.748 114.774ZM127.63 115.036L129.354 116.389L129.472 116.128L127.63 115.036ZM126.889 115.984L128.613 117.337L128.836 117.122L126.889 115.984ZM127.484 115.291L129.208 116.645L129.354 116.389L127.484 115.291ZM127.112 115.769L128.836 117.122L129.035 116.89L127.112 115.769ZM127.311 115.537L129.035 116.89L129.208 116.645L127.311 115.537ZM127.889 113.489L127.924 113.731L129.612 114.843L127.889 113.489ZM127.924 113.731L127.927 113.984L129.648 115.085L127.924 113.731ZM127.927 113.984L127.897 114.244L129.65 115.338L127.927 113.984ZM127.897 114.244L127.838 114.509L129.621 115.598L127.897 114.244ZM127.838 114.509L127.748 114.774L129.561 115.863L127.838 114.509ZM127.748 114.774L127.63 115.036L129.472 116.128L127.748 114.774ZM127.63 115.036L127.484 115.291L129.354 116.389L127.63 115.036ZM127.112 115.769L126.889 115.984L128.836 117.122L127.112 115.769ZM127.484 115.291L127.311 115.537L129.208 116.645L127.484 115.291ZM127.311 115.537L127.112 115.769L129.035 116.89L127.311 115.537ZM126.095 111.906L127.82 113.262L127.717 113.052L126.095 111.906ZM126.164 112.134L127.889 113.489L127.82 113.262L126.164 112.134ZM126.199 112.376L127.924 113.731L127.889 113.489L126.199 112.376ZM126.202 112.629L127.927 113.984L127.924 113.731L126.202 112.629ZM125.992 111.697L126.095 111.906L127.717 113.052L125.992 111.697ZM126.172 112.889L127.897 114.244L127.927 113.984L126.172 112.889ZM126.112 113.154L127.838 114.509L127.897 114.244L126.112 113.154ZM126.095 111.906L126.164 112.134L127.82 113.262L126.095 111.906ZM126.023 113.419L127.748 114.774L127.838 114.509L126.023 113.419ZM125.904 113.681L127.63 115.036L127.748 114.774L125.904 113.681ZM125.163 114.629L126.889 115.984L127.112 115.769L125.163 114.629ZM125.758 113.936L127.484 115.291L127.63 115.036L125.758 113.936ZM125.387 114.414L127.112 115.769L127.311 115.537L125.387 114.414ZM125.585 114.182L127.311 115.537L127.484 115.291L125.585 114.182ZM126.164 112.134L126.199 112.376L127.889 113.489L126.164 112.134ZM126.199 112.376L126.202 112.629L127.924 113.731L126.199 112.376ZM126.202 112.629L126.172 112.889L127.927 113.984L126.202 112.629ZM126.172 112.889L126.112 113.154L127.897 114.244L126.172 112.889ZM126.164 112.134L126.095 111.906L125.992 111.697L126.164 112.134ZM126.112 113.154L126.023 113.419L127.838 114.509L126.112 113.154ZM126.023 113.419L125.904 113.681L127.748 114.774L126.023 113.419ZM125.904 113.681L125.758 113.936L127.63 115.036L125.904 113.681ZM125.387 114.414L125.163 114.629L127.112 115.769L125.387 114.414ZM125.758 113.936L125.585 114.182L127.484 115.291L125.758 113.936ZM125.585 114.182L125.387 114.414L127.311 115.537L125.585 114.182ZM126.202 112.629L126.199 112.376L126.164 112.134L126.202 112.629ZM126.112 113.154L126.202 112.629L126.164 112.134L126.112 113.154ZM126.112 113.154L126.172 112.889L126.202 112.629L126.112 113.154ZM125.904 113.681L126.023 113.419L126.112 113.154L125.904 113.681ZM125.585 114.182L125.904 113.681L126.112 113.154L125.585 114.182ZM125.163 114.629L125.387 114.414L125.585 114.182L125.163 114.629ZM125.585 114.182L125.758 113.936L125.904 113.681L125.585 114.182Z" fill="#074FA6"/>
<path d="M172.16 58.824C172.16 60.8507 171.424 62.44 169.952 63.592C168.48 64.744 166.464 65.32 163.904 65.32C162.667 65.32 161.493 65.2133 160.384 65C159.296 64.808 158.368 64.52 157.6 64.136V60.872C158.453 61.256 159.456 61.608 160.608 61.928C161.76 62.2267 162.933 62.376 164.128 62.376C165.664 62.376 166.816 62.0773 167.584 61.48C168.352 60.8827 168.736 60.0827 168.736 59.08C168.736 58.376 168.555 57.7893 168.192 57.32C167.851 56.8293 167.307 56.3813 166.56 55.976C165.813 55.5707 164.832 55.1227 163.616 54.632C162.485 54.2053 161.483 53.704 160.608 53.128C159.755 52.552 159.083 51.8373 158.592 50.984C158.101 50.1307 157.856 49.0853 157.856 47.848C157.856 45.9707 158.539 44.4987 159.904 43.432C161.269 42.3653 163.061 41.832 165.28 41.832C166.517 41.832 167.659 41.96 168.704 42.216C169.771 42.4507 170.784 42.7813 171.744 43.208L170.656 46.056C169.781 45.6933 168.885 45.3947 167.968 45.16C167.072 44.9253 166.144 44.808 165.184 44.808C163.925 44.808 162.965 45.0853 162.304 45.64C161.643 46.1947 161.312 46.92 161.312 47.816C161.312 48.52 161.472 49.1173 161.792 49.608C162.112 50.0773 162.624 50.504 163.328 50.888C164.032 51.272 164.96 51.6987 166.112 52.168C167.392 52.68 168.48 53.224 169.376 53.8C170.293 54.3547 170.987 55.0373 171.456 55.848C171.925 56.6373 172.16 57.6293 172.16 58.824ZM173.626 47.752H177.274L180.858 57.544C181.135 58.2907 181.37 59.016 181.562 59.72C181.775 60.4027 181.935 61.0747 182.042 61.736H182.17C182.276 61.1813 182.436 60.5307 182.65 59.784C182.884 59.0373 183.14 58.28 183.418 57.512L186.81 47.752H190.458L183.066 67.336C182.447 69 181.615 70.3013 180.57 71.24C179.546 72.2 178.202 72.68 176.538 72.68C176.004 72.68 175.546 72.648 175.162 72.584C174.778 72.5413 174.447 72.488 174.17 72.424V69.736C174.383 69.7787 174.66 69.8213 175.002 69.864C175.343 69.9067 175.695 69.928 176.058 69.928C177.039 69.928 177.828 69.64 178.426 69.064C179.023 68.5093 179.492 67.7733 179.834 66.856L180.538 65L173.626 47.752ZM204.581 60.136C204.581 61.8213 203.962 63.112 202.725 64.008C201.487 64.8827 199.77 65.32 197.573 65.32C196.357 65.32 195.311 65.224 194.437 65.032C193.583 64.8613 192.794 64.6053 192.069 64.264V61.288C192.815 61.6507 193.69 61.9813 194.693 62.28C195.717 62.5573 196.709 62.696 197.669 62.696C198.949 62.696 199.866 62.4933 200.421 62.088C200.997 61.6827 201.285 61.1387 201.285 60.456C201.285 60.072 201.178 59.7307 200.965 59.432C200.751 59.112 200.346 58.792 199.749 58.472C199.173 58.1307 198.319 57.7467 197.189 57.32C196.079 56.872 195.141 56.4347 194.373 56.008C193.626 55.56 193.05 55.0373 192.645 54.44C192.239 53.8213 192.037 53.032 192.037 52.072C192.037 50.5787 192.634 49.4373 193.829 48.648C195.045 47.8373 196.645 47.432 198.629 47.432C199.674 47.432 200.655 47.5387 201.573 47.752C202.511 47.9653 203.418 48.264 204.293 48.648L203.173 51.24C202.426 50.92 201.658 50.6533 200.869 50.44C200.079 50.2053 199.279 50.088 198.469 50.088C197.445 50.088 196.666 50.248 196.133 50.568C195.599 50.888 195.333 51.336 195.333 51.912C195.333 52.3173 195.461 52.6693 195.717 52.968C195.973 53.2667 196.399 53.5653 196.997 53.864C197.615 54.1627 198.458 54.5253 199.525 54.952C200.591 55.3573 201.498 55.7733 202.245 56.2C203.013 56.6267 203.589 57.1493 203.973 57.768C204.378 58.3867 204.581 59.176 204.581 60.136ZM212.497 65L205.969 47.752H209.553L213.137 57.832C213.371 58.4933 213.606 59.24 213.841 60.072C214.075 60.8827 214.225 61.5547 214.289 62.088H214.417C214.502 61.5547 214.673 60.872 214.929 60.04C215.185 59.208 215.419 58.472 215.633 57.832L219.217 47.752H222.801L216.241 65H212.497ZM232.157 47.432C234.311 47.432 235.922 47.912 236.989 48.872C238.077 49.8107 238.621 51.2933 238.621 53.32V65H236.221L235.549 62.6H235.421C234.674 63.5387 233.885 64.232 233.053 64.68C232.242 65.1067 231.111 65.32 229.661 65.32C228.103 65.32 226.813 64.904 225.789 64.072C224.765 63.2187 224.253 61.896 224.253 60.104C224.253 58.3547 224.914 57.0213 226.237 56.104C227.559 55.1867 229.597 54.6853 232.349 54.6L235.293 54.504V53.544C235.293 52.2853 235.005 51.4 234.429 50.888C233.853 50.3547 233.042 50.088 231.997 50.088C231.122 50.088 230.279 50.216 229.469 50.472C228.658 50.728 227.879 51.0373 227.133 51.4L226.045 48.936C226.855 48.5093 227.783 48.1573 228.829 47.88C229.895 47.5813 231.005 47.432 232.157 47.432ZM235.261 56.712L232.957 56.776C230.994 56.8613 229.629 57.192 228.861 57.768C228.114 58.3227 227.741 59.112 227.741 60.136C227.741 61.032 228.007 61.6827 228.541 62.088C229.074 62.4933 229.767 62.696 230.621 62.696C231.943 62.696 233.042 62.3227 233.917 61.576C234.813 60.8293 235.261 59.7093 235.261 58.216V56.712ZM247.236 65H243.844V40.68H247.236V65ZM259.346 47.432C261.608 47.432 263.389 48.136 264.69 49.544C265.992 50.9307 266.642 52.8293 266.642 55.24V57.096H255.058C255.101 58.8667 255.56 60.2213 256.434 61.16C257.33 62.0987 258.578 62.568 260.178 62.568C261.288 62.568 262.269 62.472 263.122 62.28C263.997 62.0667 264.893 61.7573 265.81 61.352V64.168C264.936 64.552 264.061 64.84 263.186 65.032C262.312 65.224 261.266 65.32 260.05 65.32C258.365 65.32 256.882 64.9893 255.602 64.328C254.344 63.6667 253.352 62.6853 252.626 61.384C251.922 60.0613 251.57 58.44 251.57 56.52C251.57 54.5787 251.89 52.936 252.53 51.592C253.192 50.248 254.098 49.224 255.25 48.52C256.424 47.7947 257.789 47.432 259.346 47.432ZM259.346 50.056C258.13 50.056 257.149 50.4507 256.402 51.24C255.677 52.0293 255.25 53.1493 255.122 54.6H263.25C263.229 53.256 262.898 52.168 262.258 51.336C261.64 50.4827 260.669 50.056 259.346 50.056ZM168.8 88.808C166.517 88.808 164.736 89.5973 163.456 91.176C162.176 92.7333 161.536 94.8773 161.536 97.608C161.536 100.317 162.133 102.451 163.328 104.008C164.523 105.565 166.336 106.344 168.768 106.344C169.749 106.344 170.688 106.259 171.584 106.088C172.501 105.896 173.429 105.651 174.368 105.352V108.328C173.472 108.669 172.555 108.915 171.616 109.064C170.699 109.235 169.611 109.32 168.352 109.32C166.005 109.32 164.064 108.84 162.528 107.88C160.992 106.899 159.84 105.533 159.072 103.784C158.304 102.013 157.92 99.944 157.92 97.576C157.92 95.272 158.336 93.2347 159.168 91.464C160.021 89.6933 161.259 88.3173 162.88 87.336C164.501 86.3333 166.485 85.832 168.832 85.832C169.984 85.832 171.104 85.96 172.192 86.216C173.301 86.4507 174.315 86.792 175.232 87.24L173.952 90.12C173.205 89.7787 172.395 89.48 171.52 89.224C170.667 88.9467 169.76 88.808 168.8 88.808ZM194.106 100.36C194.106 103.219 193.37 105.427 191.898 106.984C190.426 108.541 188.442 109.32 185.946 109.32C184.389 109.32 183.002 108.968 181.786 108.264C180.591 107.56 179.642 106.547 178.938 105.224C178.255 103.88 177.914 102.259 177.914 100.36C177.914 97.5013 178.639 95.304 180.09 93.768C181.541 92.2107 183.525 91.432 186.042 91.432C187.621 91.432 189.007 91.784 190.202 92.488C191.418 93.1707 192.367 94.1733 193.05 95.496C193.754 96.8187 194.106 98.44 194.106 100.36ZM181.402 100.36C181.402 102.301 181.765 103.816 182.49 104.904C183.237 105.992 184.41 106.536 186.01 106.536C187.61 106.536 188.773 105.992 189.498 104.904C190.245 103.816 190.618 102.301 190.618 100.36C190.618 98.3973 190.245 96.8933 189.498 95.848C188.751 94.7813 187.578 94.248 185.978 94.248C184.378 94.248 183.215 94.7813 182.49 95.848C181.765 96.8933 181.402 98.3973 181.402 100.36ZM217.734 91.432C219.675 91.432 221.137 91.9333 222.118 92.936C223.099 93.9387 223.59 95.5493 223.59 97.768V109H220.198V98.216C220.198 95.5493 219.121 94.216 216.966 94.216C215.43 94.216 214.331 94.696 213.67 95.656C213.009 96.5947 212.678 97.9493 212.678 99.72V109H209.318V98.216C209.318 95.5493 208.23 94.216 206.054 94.216C204.433 94.216 203.313 94.7387 202.694 95.784C202.097 96.8293 201.798 98.3333 201.798 100.296V109H198.406V91.752H201.094L201.574 94.056H201.766C202.278 93.16 202.993 92.4987 203.91 92.072C204.827 91.6453 205.798 91.432 206.822 91.432C209.489 91.432 211.238 92.36 212.07 94.216H212.326C212.881 93.256 213.649 92.552 214.63 92.104C215.611 91.656 216.646 91.432 217.734 91.432ZM237.389 91.432C239.458 91.432 241.122 92.1787 242.381 93.672C243.661 95.1653 244.301 97.3947 244.301 100.36C244.301 103.283 243.661 105.512 242.381 107.048C241.101 108.563 239.426 109.32 237.357 109.32C236.034 109.32 234.957 109.085 234.125 108.616C233.314 108.125 232.664 107.549 232.173 106.888H231.949C232.013 107.272 232.066 107.731 232.109 108.264C232.152 108.776 232.173 109.235 232.173 109.64V116.68H228.781V91.752H231.533L232.013 94.056H232.173C232.664 93.3307 233.314 92.712 234.125 92.2C234.957 91.688 236.045 91.432 237.389 91.432ZM236.589 94.216C234.989 94.216 233.858 94.6853 233.197 95.624C232.536 96.5413 232.194 97.9387 232.173 99.816V100.328C232.173 102.312 232.493 103.848 233.133 104.936C233.773 106.003 234.946 106.536 236.653 106.536C238.061 106.536 239.106 105.96 239.789 104.808C240.472 103.656 240.813 102.152 240.813 100.296C240.813 98.4187 240.472 96.936 239.789 95.848C239.106 94.76 238.04 94.216 236.589 94.216ZM263.825 100.36C263.825 103.219 263.089 105.427 261.617 106.984C260.145 108.541 258.161 109.32 255.665 109.32C254.107 109.32 252.721 108.968 251.505 108.264C250.31 107.56 249.361 106.547 248.657 105.224C247.974 103.88 247.633 102.259 247.633 100.36C247.633 97.5013 248.358 95.304 249.809 93.768C251.259 92.2107 253.243 91.432 255.761 91.432C257.339 91.432 258.726 91.784 259.921 92.488C261.137 93.1707 262.086 94.1733 262.769 95.496C263.473 96.8187 263.825 98.44 263.825 100.36ZM251.121 100.36C251.121 102.301 251.483 103.816 252.209 104.904C252.955 105.992 254.129 106.536 255.729 106.536C257.329 106.536 258.491 105.992 259.217 104.904C259.963 103.816 260.337 102.301 260.337 100.36C260.337 98.3973 259.963 96.8933 259.217 95.848C258.47 94.7813 257.297 94.248 255.697 94.248C254.097 94.248 252.934 94.7813 252.209 95.848C251.483 96.8933 251.121 98.3973 251.121 100.36ZM276.861 91.432C278.866 91.432 280.402 91.9333 281.469 92.936C282.535 93.9387 283.069 95.5493 283.069 97.768V109H279.709V98.248C279.709 95.56 278.525 94.216 276.157 94.216C274.386 94.216 273.17 94.7387 272.509 95.784C271.847 96.8293 271.517 98.3333 271.517 100.296V109H268.125V91.752H270.813L271.293 94.056H271.485C272.039 93.16 272.797 92.4987 273.757 92.072C274.738 91.6453 275.773 91.432 276.861 91.432ZM295.065 91.432C297.326 91.432 299.108 92.136 300.409 93.544C301.71 94.9307 302.361 96.8293 302.361 99.24V101.096H290.777C290.82 102.867 291.278 104.221 292.153 105.16C293.049 106.099 294.297 106.568 295.897 106.568C297.006 106.568 297.988 106.472 298.841 106.28C299.716 106.067 300.612 105.757 301.529 105.352V108.168C300.654 108.552 299.78 108.84 298.905 109.032C298.03 109.224 296.985 109.32 295.769 109.32C294.084 109.32 292.601 108.989 291.321 108.328C290.062 107.667 289.07 106.685 288.345 105.384C287.641 104.061 287.289 102.44 287.289 100.52C287.289 98.5787 287.609 96.936 288.249 95.592C288.91 94.248 289.817 93.224 290.969 92.52C292.142 91.7947 293.508 91.432 295.065 91.432ZM295.065 94.056C293.849 94.056 292.868 94.4507 292.121 95.24C291.396 96.0293 290.969 97.1493 290.841 98.6H298.969C298.948 97.256 298.617 96.168 297.977 95.336C297.358 94.4827 296.388 94.056 295.065 94.056ZM315.33 91.432C317.335 91.432 318.871 91.9333 319.938 92.936C321.004 93.9387 321.538 95.5493 321.538 97.768V109H318.178V98.248C318.178 95.56 316.994 94.216 314.626 94.216C312.855 94.216 311.639 94.7387 310.978 95.784C310.316 96.8293 309.986 98.3333 309.986 100.296V109H306.594V91.752H309.282L309.762 94.056H309.954C310.508 93.16 311.266 92.4987 312.226 92.072C313.207 91.6453 314.242 91.432 315.33 91.432ZM332.958 106.568C333.406 106.568 333.864 106.536 334.334 106.472C334.803 106.387 335.208 106.28 335.55 106.152V108.712C335.166 108.883 334.664 109.021 334.046 109.128C333.448 109.256 332.84 109.32 332.222 109.32C331.283 109.32 330.419 109.16 329.63 108.84C328.84 108.52 328.211 107.965 327.742 107.176C327.294 106.387 327.07 105.288 327.07 103.88V94.344H324.67V92.808L327.198 91.528L328.382 87.88H330.462V91.752H335.39V94.344H330.462V103.816C330.462 104.755 330.686 105.448 331.134 105.896C331.603 106.344 332.211 106.568 332.958 106.568ZM159.04 153V130.152H162.496V150.024H172.256V153H159.04ZM177.54 129.192C178.052 129.192 178.5 129.341 178.884 129.64C179.268 129.939 179.46 130.44 179.46 131.144C179.46 131.827 179.268 132.328 178.884 132.648C178.5 132.947 178.052 133.096 177.54 133.096C176.986 133.096 176.516 132.947 176.132 132.648C175.77 132.328 175.588 131.827 175.588 131.144C175.588 130.44 175.77 129.939 176.132 129.64C176.516 129.341 176.986 129.192 177.54 129.192ZM179.204 135.752V153H175.812V135.752H179.204ZM187.923 128.68V134.536C187.923 135.24 187.902 135.912 187.859 136.552C187.816 137.192 187.784 137.683 187.763 138.024H187.923C188.392 137.299 189.043 136.691 189.875 136.2C190.728 135.709 191.816 135.464 193.139 135.464C195.208 135.464 196.872 136.211 198.131 137.704C199.411 139.197 200.051 141.416 200.051 144.36C200.051 147.325 199.411 149.565 198.131 151.08C196.851 152.573 195.176 153.32 193.107 153.32C191.763 153.32 190.675 153.085 189.843 152.616C189.032 152.125 188.392 151.549 187.923 150.888H187.667L187.027 153H184.531V128.68H187.923ZM192.339 138.216C190.675 138.216 189.523 138.707 188.883 139.688C188.243 140.648 187.923 142.131 187.923 144.136V144.392C187.923 146.376 188.232 147.901 188.851 148.968C189.491 150.013 190.675 150.536 192.403 150.536C193.768 150.536 194.803 150.003 195.507 148.936C196.211 147.869 196.563 146.333 196.563 144.328C196.563 140.253 195.155 138.216 192.339 138.216ZM212.887 135.432C213.185 135.432 213.505 135.453 213.847 135.496C214.209 135.517 214.519 135.549 214.775 135.592L214.423 138.76C213.868 138.611 213.292 138.536 212.695 138.536C211.841 138.536 211.031 138.749 210.263 139.176C209.516 139.603 208.908 140.221 208.439 141.032C207.991 141.821 207.767 142.781 207.767 143.912V153H204.375V135.752H207.063L207.511 138.824H207.639C208.193 137.907 208.908 137.117 209.783 136.456C210.657 135.773 211.692 135.432 212.887 135.432ZM224.032 135.432C226.186 135.432 227.797 135.912 228.864 136.872C229.952 137.811 230.496 139.293 230.496 141.32V153H228.096L227.424 150.6H227.296C226.549 151.539 225.76 152.232 224.928 152.68C224.117 153.107 222.986 153.32 221.536 153.32C219.978 153.32 218.688 152.904 217.664 152.072C216.64 151.219 216.128 149.896 216.128 148.104C216.128 146.355 216.789 145.021 218.112 144.104C219.434 143.187 221.472 142.685 224.224 142.6L227.168 142.504V141.544C227.168 140.285 226.88 139.4 226.304 138.888C225.728 138.355 224.917 138.088 223.872 138.088C222.997 138.088 222.154 138.216 221.344 138.472C220.533 138.728 219.754 139.037 219.008 139.4L217.92 136.936C218.73 136.509 219.658 136.157 220.704 135.88C221.77 135.581 222.88 135.432 224.032 135.432ZM227.136 144.712L224.832 144.776C222.869 144.861 221.504 145.192 220.736 145.768C219.989 146.323 219.616 147.112 219.616 148.136C219.616 149.032 219.882 149.683 220.416 150.088C220.949 150.493 221.642 150.696 222.496 150.696C223.818 150.696 224.917 150.323 225.792 149.576C226.688 148.829 227.136 147.709 227.136 146.216V144.712ZM244.231 135.432C244.529 135.432 244.849 135.453 245.191 135.496C245.553 135.517 245.863 135.549 246.119 135.592L245.767 138.76C245.212 138.611 244.636 138.536 244.039 138.536C243.185 138.536 242.375 138.749 241.607 139.176C240.86 139.603 240.252 140.221 239.783 141.032C239.335 141.821 239.111 142.781 239.111 143.912V153H235.719V135.752H238.407L238.855 138.824H238.983C239.537 137.907 240.252 137.117 241.127 136.456C242.001 135.773 243.036 135.432 244.231 135.432ZM246.688 135.752H250.336L253.92 145.544C254.198 146.291 254.432 147.016 254.624 147.72C254.838 148.403 254.998 149.075 255.104 149.736H255.232C255.339 149.181 255.499 148.531 255.712 147.784C255.947 147.037 256.203 146.28 256.48 145.512L259.872 135.752H263.52L256.128 155.336C255.51 157 254.678 158.301 253.632 159.24C252.608 160.2 251.264 160.68 249.6 160.68C249.067 160.68 248.608 160.648 248.224 160.584C247.84 160.541 247.51 160.488 247.232 160.424V157.736C247.446 157.779 247.723 157.821 248.064 157.864C248.406 157.907 248.758 157.928 249.12 157.928C250.102 157.928 250.891 157.64 251.488 157.064C252.086 156.509 252.555 155.773 252.896 154.856L253.6 153L246.688 135.752Z" fill="#074FA6"/>
</svg>
